<svg xmlns="http://www.w3.org/2000/svg" width="493.763" height="493.763" viewBox="0 0 493.763 493.763"><path d="M219.267 235.448c-15.23 15.23-15.23 39.924 0 55.155 15.229 15.229 39.924 15.229 55.155 0 15.229-15.23 15.229-39.925 0-55.155-15.231-15.23-39.926-15.231-55.155 0zm54.094 26.516c-3.163 3.163-11.426.028-18.455-7.001-7.03-7.028-10.163-15.292-7.001-18.455 3.163-3.163 11.426-.028 18.455 7.001 7.03 7.03 10.164 15.292 7.001 18.455z"/><path d="M493.618 280.299c-2.499-3.59-4.943-7.217-7.416-10.825-11.234-16.395-24.361-31.432-38.634-45.25-18.247-17.668-38.232-33.562-59.815-46.977-21.725-13.503-44.939-24.555-69.36-32.229-20.185-6.343-41.121-10.143-62.259-11.08-19.646-.87-39.361 1.082-58.568 5.226-25.07 5.41-49.316 14.792-71.924 26.844-22.479 11.984-43.529 26.554-62.86 43.136a359.04 359.04 0 0 0-27.403 26.127c-8.199 8.692-16.095 17.792-23.099 27.482-2.513 3.477-4.929 7.017-7.358 10.551-1.583 2.305-3.196 4.588-4.749 6.911-.308.46-.209.493.341.936l3.376 2.716c4.019 3.231 7.868 6.657 11.876 9.902 10.058 8.143 20.533 15.773 31.28 22.979 21.353 14.315 43.874 26.92 67.405 37.287 4.774 2.104 9.615 4.03 14.447 5.994-10.817-6.859-21.424-13.953-31.621-21.716a439.224 439.224 0 0 1-29.828-24.89c-11.343-10.34-22.193-21.244-32.37-32.735 19.287-12.559 38.938-24.542 59.188-35.491 19.651-10.624 39.85-20.042 60.676-28.12a314.015 314.015 0 0 1 12.689-4.611c-9.357 14.609-14.787 31.962-14.787 50.561 0 51.832 42.168 94 94 94 51.833 0 94-42.168 94-94 0-18.5-5.375-35.767-14.641-50.327a377.86 377.86 0 0 1 16.121 5.865c24.207 9.427 47.465 21.143 70.049 33.943 15.688 8.894 31.021 18.39 46.147 28.207-17.028 19.229-35.871 36.935-56.022 52.855-12.084 9.547-24.713 18.213-37.709 26.459 11.85-4.81 23.533-9.886 34.938-15.685a448.937 448.937 0 0 0 33.75-19.054c17.941-11.164 35.457-23.409 51.418-37.288 1.821-1.584 3.69-3.093 5.572-4.606.949-.766 1.9-1.529 2.85-2.294.472-.378.562-.427.3-.803zm-246.774 46.727c-35.29 0-64-28.71-64-64 0-35.291 28.71-64 64-64 35.291 0 64 28.71 64 64 .001 35.29-28.709 64-64 64z"/></svg>