<?xml version="1.0" standalone="no"?>
<!DOCTYPE svg PUBLIC "-//W3C//DTD SVG 20010904//EN"
 "http://www.w3.org/TR/2001/REC-SVG-20010904/DTD/svg10.dtd">
<svg version="1.0" xmlns="http://www.w3.org/2000/svg"
 width="700.000000pt" height="700.000000pt" viewBox="0 0 700.000000 700.000000"
 preserveAspectRatio="xMidYMid meet">
<metadata>
Created by potrace 1.11, written by Peter Selinger 2001-2013
</metadata>
<g transform="translate(0.000000,700.000000) scale(0.100000,-0.100000)"
fill="#000000" stroke="none">
<path d="M4573 6991 c-62 -16 -142 -62 -189 -109 -50 -50 -124 -157 -124 -179
0 -7 -3 -13 -8 -13 -8 0 -48 -107 -64 -169 -37 -151 -42 -314 -13 -467 9 -49
20 -98 25 -109 5 -11 19 -45 30 -76 45 -123 146 -252 238 -305 141 -80 292
-62 419 50 82 72 175 226 199 329 1 4 2 8 3 10 2 1 5 13 8 27 7 38 11 55 13
55 1 0 3 11 5 25 2 14 6 39 9 55 8 40 9 219 1 270 -14 98 -68 291 -86 305 -3
3 -12 20 -20 38 -8 17 -17 32 -20 32 -4 0 -12 13 -19 29 -26 65 -147 160 -245
195 -32 12 -128 16 -162 7z"/>
<path d="M5686 6983 c-49 -15 -125 -57 -138 -77 -4 -6 -8 -7 -8 -3 0 20 -150
-176 -150 -197 0 -3 -9 -25 -19 -49 -42 -91 -69 -204 -77 -321 -2 -33 -6 -62
-9 -64 -3 -3 0 -11 6 -19 9 -10 8 -13 -2 -13 -11 0 -11 -2 1 -10 13 -9 13 -11
0 -20 -11 -7 -11 -10 -2 -10 7 0 11 -4 7 -10 -14 -23 33 -241 72 -330 43 -99
114 -210 134 -210 5 0 9 -6 9 -12 0 -15 121 -98 142 -98 8 0 18 -3 22 -7 15
-16 132 -22 181 -10 46 11 65 20 65 29 0 5 4 7 9 4 8 -5 79 41 111 73 41 40
91 112 120 171 18 36 36 72 40 81 7 14 43 151 56 210 2 13 5 87 6 164 1 122
-2 154 -26 249 -16 60 -31 116 -35 125 -92 191 -162 276 -277 331 -76 37 -166
45 -238 23z"/>
<path d="M3685 5896 c-65 -25 -144 -91 -153 -127 -2 -8 -7 -16 -10 -19 -4 -3
-9 -12 -11 -20 -7 -32 -8 -35 -14 -50 -11 -27 -18 -74 -20 -130 -2 -71 12
-200 21 -200 4 0 9 -12 10 -26 1 -14 5 -31 9 -37 4 -7 9 -21 11 -32 4 -27 64
-145 104 -203 30 -45 139 -158 184 -193 12 -10 52 -31 89 -49 81 -39 182 -47
255 -21 73 26 173 141 173 199 0 6 3 12 7 12 4 0 7 6 8 13 2 35 11 122 13 125
2 3 2 42 -1 45 -1 1 -4 27 -6 57 -18 216 -180 485 -360 599 -96 61 -233 86
-309 57z"/>
<path d="M6535 5890 c-91 -31 -135 -61 -224 -151 -61 -60 -91 -95 -91 -106 0
-3 -6 -14 -14 -22 -23 -27 -73 -127 -96 -193 -80 -232 -56 -454 62 -570 45
-44 59 -53 81 -49 4 0 7 -3 7 -7 0 -11 33 -15 117 -14 60 1 84 6 140 33 193
91 346 296 409 548 29 114 18 321 -19 369 -5 6 -6 12 -3 12 10 0 -33 60 -69
96 -70 70 -191 92 -300 54z"/>
<path d="M5170 5203 c-77 -9 -155 -30 -202 -54 -10 -5 -24 -9 -32 -9 -8 0 -16
-3 -18 -7 -1 -5 -21 -17 -43 -28 -67 -34 -215 -188 -368 -385 -58 -74 -236
-337 -282 -417 -11 -18 -24 -33 -29 -33 -5 0 -6 -3 -3 -7 4 -3 1 -13 -7 -22
-24 -28 -105 -189 -116 -232 -27 -99 -20 -204 17 -279 21 -41 103 -129 121
-130 6 0 12 -3 12 -8 0 -12 121 -51 185 -59 114 -15 285 -2 330 26 6 3 12 6
15 6 13 0 96 40 102 50 4 5 8 7 8 3 0 -4 16 4 36 17 20 14 43 25 50 25 8 0 14
5 14 12 0 6 3 9 6 5 3 -3 17 -2 30 3 26 10 53 17 124 28 56 10 267 8 335 -2
28 -5 51 -8 52 -7 2 0 28 -10 58 -24 30 -13 55 -21 55 -17 0 4 4 2 8 -5 7 -11
124 -73 178 -94 95 -36 277 -43 401 -14 66 15 143 51 143 67 0 4 3 7 8 6 11
-4 65 52 89 92 42 70 58 191 36 276 -7 28 -29 84 -50 125 -39 79 -133 232
-145 237 -5 2 -8 8 -8 14 0 6 -17 36 -37 66 -21 30 -42 62 -48 71 -5 9 -12 18
-15 21 -9 8 -80 110 -80 114 0 2 -9 15 -20 28 -11 12 -56 70 -101 126 -226
290 -339 372 -559 408 -39 7 -212 11 -250 7z"/>
<path d="M1090 3513 c-180 -46 -330 -248 -385 -518 -27 -130 -24 -329 5 -448
23 -91 49 -167 62 -182 4 -5 8 -15 8 -23 0 -23 80 -135 135 -187 49 -48 118
-89 167 -102 41 -10 152 -10 178 0 143 56 224 134 303 290 30 60 37 79 39 105
1 6 4 12 8 12 4 0 7 6 8 13 1 6 9 46 18 87 18 87 25 294 12 371 -5 30 -11 68
-13 86 -3 17 -10 44 -16 60 -6 15 -13 37 -15 48 -2 10 -24 60 -49 110 -58 117
-143 208 -237 253 -78 38 -147 46 -228 25z"/>
<path d="M2234 3515 c-73 -16 -140 -58 -206 -128 -32 -33 -58 -64 -58 -68 0
-4 -6 -14 -12 -21 -33 -35 -103 -205 -109 -264 -2 -16 -7 -34 -11 -40 -5 -7
-8 -16 -6 -20 1 -5 -2 -34 -6 -64 -14 -90 -4 -321 14 -342 1 -2 4 -16 6 -33 7
-39 48 -153 75 -207 26 -52 86 -136 114 -161 64 -57 76 -67 84 -67 5 0 11 -4
13 -9 8 -20 115 -47 178 -45 77 3 130 13 130 25 0 5 8 9 18 9 9 0 29 10 44 23
14 12 40 33 57 47 33 26 111 131 111 148 0 6 4 12 8 14 10 4 49 87 58 124 4
16 10 34 14 39 9 13 30 128 35 190 2 28 5 52 5 55 10 33 -7 241 -25 309 -7 28
-11 51 -8 51 3 0 1 6 -4 13 -6 6 -18 36 -27 64 -10 29 -22 55 -27 58 -5 4 -9
15 -9 26 0 10 -4 19 -9 19 -5 0 -14 14 -21 31 -14 34 -117 144 -165 176 -71
48 -175 68 -261 48z"/>
<path d="M215 2427 c-100 -34 -181 -140 -203 -267 -8 -46 -7 -175 1 -220 4
-19 9 -48 12 -65 3 -16 9 -39 14 -50 5 -11 17 -40 26 -65 19 -53 96 -189 128
-227 70 -84 176 -172 226 -188 12 -3 21 -11 21 -17 0 -6 3 -9 6 -5 4 3 21 0
38 -7 43 -17 148 -20 193 -5 84 29 155 108 188 209 33 99 27 257 -13 387 -6
17 -8 34 -4 37 3 3 0 6 -6 6 -7 0 -12 6 -12 14 0 22 -71 158 -111 211 -95 127
-226 228 -324 251 -51 11 -148 12 -180 1z"/>
<path d="M3100 2431 c0 -4 -10 -8 -23 -9 -49 -4 -161 -77 -239 -156 -43 -43
-78 -84 -78 -91 0 -7 -7 -15 -15 -19 -8 -3 -15 -12 -15 -20 0 -8 -6 -21 -14
-29 -19 -19 -70 -129 -91 -197 -16 -52 -21 -75 -28 -145 -2 -17 -6 -36 -10
-42 -4 -7 -3 -15 3 -18 8 -5 8 -11 1 -19 -6 -7 -8 -16 -5 -19 3 -3 8 -28 9
-56 4 -57 9 -77 42 -149 78 -172 276 -212 463 -94 30 19 57 39 58 43 2 5 7 9
12 9 4 0 25 17 46 38 222 217 320 588 214 806 -17 34 -36 68 -42 76 -24 29
-93 77 -123 86 -36 10 -165 14 -165 5z"/>
<path d="M1737 1733 c-1 -1 -29 -5 -62 -8 -82 -10 -79 -9 -85 -17 -3 -4 -20
-8 -38 -10 -18 -1 -32 -6 -32 -10 0 -4 -6 -8 -13 -8 -22 0 -98 -40 -152 -80
-75 -56 -212 -209 -341 -380 -47 -62 -254 -369 -254 -377 0 -2 -14 -24 -30
-48 -47 -68 -125 -225 -138 -277 -23 -90 -11 -193 32 -277 44 -85 150 -151
281 -176 89 -17 256 -13 313 8 23 9 43 16 45 16 8 -1 50 17 102 44 134 68 153
76 215 91 45 10 115 15 227 14 174 0 250 -14 334 -58 99 -51 162 -82 173 -85
6 -1 18 -5 26 -8 108 -40 266 -45 405 -12 17 4 36 8 43 8 6 0 12 3 12 7 0 3
16 12 36 19 20 7 59 35 85 61 65 64 92 127 103 242 7 69 -39 198 -117 328 -27
47 -249 384 -256 390 -4 3 -33 41 -65 85 -33 44 -63 82 -68 83 -4 2 -8 10 -8
17 0 7 -3 15 -7 17 -5 2 -33 32 -63 68 -112 133 -260 271 -260 243 0 -4 -4 -3
-8 2 -20 28 -203 85 -259 80 -13 -1 -23 1 -23 4 0 5 -149 9 -153 4z"/>
</g>
</svg>
