<svg id="Layer_1" xmlns="http://www.w3.org/2000/svg" viewBox="80 -36.2 459.3 372.2"><style>.st0{display:none}.st1{display:inline}.st2{fill:#37424a}</style><g id="original"><path class="st2" d="M286.7 147h-.1c0 .1 0 0 .1 0zm0 0h-.1c0 .1 0 0 .1 0z"/><path class="st2" d="M80.6 172.9c1.9 30.7 59.7 35.4 77.4 36.1 9.7.4 30.8 2.5 49.6 5.5-.3 9.2-.9 26.4-1.2 28.7-.3 2.5.5 6.9 2.7 11.5-3.6 3.7-5.1 7.2-4.4 10.6 1.1 5.5 7.7 7.9 7.9 8l5.9 2.1-3.6-5.1c-1.3-1.8-1.8-3.4-1.4-4.6.4-1.3 1.7-2.1 2.5-2.6.4.1.8 0 1.2-.1 1.1-.4 4-1.4 6.4-27l4.9-17.7c3.2.8 6.1 1.6 8.4 2.4 8.1 2.9 14.7 2.2 19.5.3.8 5.5 2 11 3.4 16.4 1.2 4.5 2.6 8.9 4.2 13.2-1.3.7-2.8 1.4-4.2 2.1-3 1.5-5.9 2.8-7.8 4.2-9.5 6.5-9.7 13.9-9.2 16.7.2 1.4.6 2.7 1.2 3.8-.9 3.4-.6 6.2.9 8.1 2.2 2.7 5.7 2.6 6.1 2.5l5.7-.4-4.8-3.2c-.8-.5-1.3-1.1-1.4-1.8-.1-.6.1-1.3.3-1.9 8.6.1 12.6-10.1 14.1-13.8.8-1.9 2.1-4.5 3.2-6.7 1.6 3.3 3.3 6.4 5 9.2l.1.1c-.8 7.6.7 13.5 4.7 17.6 5.9 5.9 15 6 18.9 5.7l.3.2c1.3.8 2.5 1.2 3.7 1.5-.8 1.4-1.8 3.1-3.1 5.1-.8 1.2-1.7 2.4-2.8 3.7-.5.6-1 1.3-1.6 1.9-.6.7-1.2 1.3-1.9 2-2.6 2.8-5.2 5.8-7.6 9.1-.6.8-1.2 1.7-1.7 2.6-.6.9-1 1.9-1.4 2.7-.9 1.7-1.8 3.3-2.8 4.8-2 3-4.4 5.4-6.8 6.8s-4.8 1.8-6.4 1.6c-.8-.1-1.5-.2-1.9-.3s-.7-.2-.7-.2l-.4 1.2s.2.1.7.2c.5.2 1.2.3 2.1.5 1.8.3 4.6.1 7.4-1.4 2.8-1.4 5.5-4 7.8-7 1.2-1.5 2.2-3.2 3.3-4.9.5-.9.9-1.7 1.5-2.4.5-.7 1.1-1.5 1.7-2.2 2.4-3 5.2-5.8 7.8-8.2.7-.6 1.3-1.2 2-1.8.7-.6 1.3-1.3 1.9-1.9 1.2-1.3 2.3-2.6 3.2-3.8 1.9-2.4 3.3-4.6 4.2-6.1.2-.3.3-.6.5-.9.8.1 1.6.2 2.6.2v.1h3v-.1c1 0 1.6-.1 2.5-.2.2.3.2.6.4.9.9 1.5 2.3 3.7 4.2 6.1 1 1.2 2 2.5 3.2 3.8.6.6 1.2 1.3 1.9 1.9.7.6 1.3 1.2 2 1.8 2.7 2.5 5.4 5.3 7.8 8.2.6.7 1.2 1.5 1.7 2.2s.9 1.6 1.5 2.4c1 1.7 2.1 3.4 3.3 4.9 2.3 3 5 5.5 7.8 7s5.6 1.7 7.4 1.4c.9-.1 1.6-.3 2.1-.5.5-.1.7-.2.7-.2l-.4-1.2s-.2.1-.7.2c-.4.1-1.1.2-1.9.3-1.6.1-4-.2-6.4-1.6-2.4-1.4-4.8-3.8-6.8-6.8-1-1.5-1.9-3.1-2.8-4.8-.4-.8-.8-1.8-1.4-2.7-.5-.9-1.1-1.7-1.7-2.6-2.4-3.3-5-6.3-7.6-9.1-.6-.7-1.3-1.3-1.9-2-.6-.6-1.1-1.2-1.6-1.9-1-1.2-1.9-2.5-2.7-3.7-1.3-1.9-2.3-3.7-3.1-5.1 1.2-.3 2.5-.7 3.8-1.5l.3-.2c3.9.3 13 .1 18.8-5.7 4-4.1 5.6-10 4.7-17.6l.1-.1c1.8-2.8 3.4-5.9 5-9.2 1.2 2.2 2.5 4.8 3.2 6.8 1.5 3.7 5.5 13.8 14.1 13.7.2.5.4 1.2.3 1.9-.1.7-.6 1.3-1.4 1.8l-4.8 3.2 5.7.4c.4 0 3.9.2 6.1-2.5 1.5-1.9 1.8-4.6.9-8.1.6-1.1 1-2.4 1.2-3.8.4-2.8.3-10.2-9.2-16.7-1.9-1.3-4.8-2.7-7.8-4.2-1.4-.7-2.9-1.4-4.2-2.1 1.6-4.3 3.1-8.7 4.2-13.2 1.5-5.4 2.6-10.9 3.4-16.4 4.8 1.8 11.3 2.6 19.5-.3 2.3-.8 5.2-1.6 8.4-2.4l4.9 17.7c2.3 25.6 5.3 26.6 6.4 27 .4.1.8.2 1.2.1.7.4 2.1 1.2 2.5 2.5.4 1.2-.1 2.8-1.4 4.6l-3.6 5.1 5.9-2.1c.3-.1 6.8-2.5 7.9-8 .7-3.3-.8-6.9-4.4-10.6 2.2-4.6 3-9.1 2.7-11.5-.3-2.3-.9-19.5-1.2-28.7 18.8-3 39.9-5.1 49.6-5.5 17.7-.7 75.5-5.4 77.4-36.1.4-2.1 1.6-12.9-14.9-23.6.1-3.9-1.2-12.6-14.6-18.4-.2-.1-9.3-3.5-13.3-8-2.6-2.8-6.9-4.1-11.7-3.4-1.2.2-2.2.4-3.3.8.2-.8.5-1.7.7-2.5 2.1-7.8-.6-12.5-3.3-15-4.8-4.5-13.1-5.9-21.6-5.9-11.1 0-22.5 2.5-26.8 3.9-6.1 2.1-12.5 6.7-18.8 13.9-5.3.8-28.6 6.1-40.2 35.4-1.7 4.3-2.4 8.6-3.2 13.2-.1.9-.3 1.8-.5 2.7-3.2-1-8.6-3-13.4-5.9l-.3-.6c-3.7-5.9-8.2-10.7-13.7-14.3 11.4-4.9 42.9-18.8 53.2-27.4 3.7-3.1 5.3-5.6 5-8.1 0-.2-.1-.4-.2-.6 2.8-6.9 23.6-59.4 18.7-85.9v-.3l-.1-.3c-.7-1.4-18.1-35.3-27.6-42.9l-6.2-5 22.3 49.3c-3.9 9.4-25.4 62.3-22.1 76-2.3 1.7-8.4 5.4-17 4.9 1.5-3.9 2.7-7.6 3.8-11.4 10-34.3 7.9-67.5-5.8-91.2C353-17.2 334.6-30 309.5-36.1c-25.1 6-43.5 18.9-54.7 38.3-13.7 23.7-15.8 56.9-5.8 91.2 1.1 3.8 2.4 7.5 3.8 11.4-8.5.5-14.7-3.2-17-4.9 3.3-13.7-18.2-66.6-22.1-76L236-25.4l-6.2 5c-9.6 7.6-26.9 41.5-27.6 42.9l-.1.3v.3c-4.9 26.4 15.9 79 18.7 85.9 0 .2-.1.4-.2.6-.3 2.5 1.3 5 5 8.1 10.4 8.6 41.9 22.5 53.3 27.4-5.4 3.7-10 8.5-13.7 14.3l-.3.6c-4.8 2.9-10.2 4.9-13.4 5.9-.2-.9-.3-1.8-.5-2.7-.8-4.6-1.5-8.9-3.2-13.2-11.6-29.3-34.9-34.5-40.2-35.4-6.4-7.1-12.7-11.8-18.8-13.9-4.2-1.5-15.7-3.9-26.8-3.9-8.5 0-16.8 1.5-21.6 5.9-2.7 2.5-5.4 7.1-3.3 15 .2.8.5 1.7.7 2.5-1-.3-2.1-.6-3.3-.8-4.8-.7-9.1.6-11.7 3.4-4 4.4-13.1 7.9-13.3 8-13.4 5.8-14.7 14.6-14.6 18.4C79 160 80.2 170.9 80.6 172.9zM288.9 289l.7.2c-3.1-.5-6.5-1.9-9-4.4-2.9-3-4.2-7.1-3.8-12.9 4.5 2.9 13.7 9.1 18 17.1h-5.9zm50.5-4.3c-2.5 2.5-5.8 4-9 4.5l.7-.2h-6c4.4-8 13.6-14.2 18-17.1.5 5.7-.7 9.8-3.7 12.8zm146.4-160c3-.4 5.7.2 7.1 1.8 4.9 5.3 14.7 9.1 15.2 9.3 13 5.6 11.4 14 11.3 14.4l-.4 1.8 1.6 1c15.9 9.7 14 18.7 13.9 19l-.1.5c-1.4 27.2-60.6 31-72.4 31.5-15.2.6-61.9 5.9-80.2 12.2-7.1 2.4-13 1.2-17.2-.8-.9-.4-1.7-.8-2.5-1.3-1-.6-1.8-1.1-2.5-1.6-1.2-.9-1.8-1.6-1.8-1.6s-.5-.4-1.1-1c-.1-.5-.3-1-.5-1.5.7-.3 1.7-1 3.8-2.2l6.2-3.8c18.8-11.5 57.7-35.6 72.9-40.1 18.9-5.6 31.8-16.6 39.4-33.5.9-2.1 4.1-3.6 7.3-4.1zM360.3 199c.8-1.1 1.5-2.2 2.1-3.2.8-1.3 1.6-2.6 2.3-3.8v-.1c6.3-11.1 7.7-20 9-27.6.8-4.5 1.4-8.4 2.9-12.2 11.7-29.5 36.7-32.3 37-32.3l1-.1.7-.8c5.9-6.7 11.8-11.3 17.2-13.1 7.5-2.6 34.6-7.1 43.1.9 2.4 2.3 3 5.5 1.8 9.8l-3.3 8.8c-7 16.2-19 26.7-36.8 32-15.3 4.5-52.7 27.4-72.3 39.5 0 0-.1 0-.1.1-.6.4-1.2.8-1.8 1.1l-3 1.8c-.1.1-.2.1-.3.2-.3.2-.5.3-.8.5.3-.4.5-.7.8-1.1.3-.2.4-.3.5-.4zM253.4 89.2c-4.7-17.3-6-34.1-4.4-49.4 5.5-3.3 26-13.8 61.6-13.9 33.1.1 53.7 9.8 60.4 13.5 1.7 15.2.4 32-4.2 49.3-6.3-7.1-23.2-21.8-55.2-22.1h-2c-33.9.2-50.6 15.8-56.2 22.6zm13.8 33.9c3.1-6 16-22.7 43.4-23.1 25.4.3 38.8 15.6 42.6 22.4-.1.2-.2.5-.4.7-4.3 7.6-11 14-19.3 18.2-6.4-2.9-13.9-4.4-21.9-4.7v-.1h-3v.1c-9 .2-15.6 1.8-22 4.7-8.2-4.3-15.1-10.7-19.4-18.2zm-4.5 56.4c.1-.5.2-.9.4-1.4 4.8-4.4 20.5-16.6 47.6-16.8 24.6.2 40.2 11 46.1 16 .2.7.4 1.5.6 2.2.9 3.5 1.6 7.3 2 11.3-2.2 3.7-5 7.7-8.6 12h-.3c-2.5 0-4.8 2.2-6.9 6.6-3.6 7.4-4 12.4-1.3 15 3 2.9 8.7 1.3 10.8.2 2.4-1.3 3.6-3.9 4.1-7 .5.4 1.1.8 1.7 1.2-.8 5.9-2 11.8-3.5 17.5-.3 1-.6 2.1-.9 3.1-12.7 13.1-39.9 14.3-44 14.4-5.1-.1-33.1-1.3-45.3-15.4l-.6-2.1c-1.5-5.8-2.7-11.6-3.5-17.5.6-.4 1.2-.8 1.7-1.2.4 3 1.7 5.7 4.1 7 2.1 1.1 7.8 2.7 10.8-.2 2.7-2.6 2.2-7.6-1.3-15-2.1-4.4-4.4-6.6-6.9-6.6h-.3c-3.6-4.3-6.4-8.3-8.6-12 .5-3.9 1.2-7.8 2.1-11.3zm-118.3-72.8c8.5-8 35.7-3.4 43.1-.9 5.4 1.8 11.4 6.4 17.2 13.1l.7.8 1 .1c.2 0 25.3 2.8 37 32.3 1.5 3.8 2.1 7.7 2.9 12.2 1.3 7.6 2.7 16.5 9 27.6v.1c.7 1.2 1.5 2.5 2.3 3.8.7 1.1 1.4 2.1 2.1 3.2.1.1.2.3.3.4.2.4.5.7.8 1.1-.2-.1-.5-.3-.8-.5-.1-.1-.2-.1-.3-.2-.9-.6-1.9-1.2-3-1.8-.6-.4-1.2-.8-1.8-1.1 0 0-.1 0-.1-.1-19.6-12.1-56.9-34.9-72.3-39.5-17.8-5.3-29.9-15.8-36.8-32-1.1-2.8-2.4-5.6-3.3-8.8-1.1-4.3-.5-7.5 2-9.8zm-44.9 46.2l1.6-1-.4-1.8c-.1-.4-1.7-8.8 11.3-14.4.4-.2 10.3-3.9 15.2-9.3 1.4-1.5 4.1-2.2 7.1-1.8 3.3.5 6.4 2 7.4 4 7.7 16.9 20.6 27.9 39.4 33.5 15.2 4.5 54.2 28.6 73 40.1l5.8 3.7c.1 0 .2.1.2.1 2 1.2 3.1 1.9 3.8 2.2-.2.5-.3 1-.5 1.5-.5.7-1 1-1 1s-.6.7-1.8 1.6c-.7.5-1.5 1.1-2.5 1.6-.7.4-1.6.9-2.5 1.3-4.2 1.9-10.2 3.2-17.2.7-18.3-6.3-65-11.6-80.2-12.2-11.8-.5-71-4.2-72.4-31.5l-.1-.5c-.1-.1-2.1-9.1 13.8-18.8z"/></g></svg>