<?xml version="1.0" encoding="utf-8"?>
<svg xmlns="http://www.w3.org/2000/svg"
	xmlns:xlink="http://www.w3.org/1999/xlink"
	width="294px" height="72px" viewBox="0 0 294 72">
<path fillRule="evenodd" d="M 292.34 26.84C 292.34 26.84 283.44 26.84 283.44 26.84 282.69 26.84 282.36 26.37 282.36 25.51 282.36 24.75 282.69 24.32 283.44 24.32 283.44 24.32 285.35 24.32 285.35 24.32 286.11 24.32 286.43 24 286.43 23.24 286.43 23.24 286.43 5.24 286.43 5.24 286.43 4.49 286.11 4.16 285.35 4.16 285.35 4.16 283.44 4.16 283.44 4.16 282.69 4.16 282.36 3.73 282.36 2.98 282.36 2.11 282.69 1.65 283.44 1.65 283.44 1.65 288.23 1.65 288.23 1.65 288.99 1.65 289.31 2.11 289.31 2.98 289.31 2.98 289.31 23.24 289.31 23.24 289.31 24 289.64 24.32 290.39 24.32 290.39 24.32 292.34 24.32 292.34 24.32 293.09 24.32 293.42 24.75 293.42 25.62 293.42 26.37 293.09 26.84 292.34 26.84ZM 269.23 26.84C 269.23 26.84 268.58 26.84 268.58 26.84 267.82 26.84 267.5 26.52 267.5 25.76 267.5 25.76 267.5 25.04 267.5 25.04 267.5 24.79 267.43 24.68 267.36 24.68 267.28 24.68 267.21 24.79 267.18 24.86 266.67 25.94 264.94 26.99 262.78 26.99 257.78 26.99 257.78 21.98 257.78 21.98 257.78 21.98 257.78 13.7 257.78 13.7 257.78 13.7 257.78 8.7 262.78 8.7 264.94 8.7 266.67 9.74 267.18 10.82 267.21 10.9 267.28 11 267.36 11 267.43 11 267.5 10.9 267.5 10.64 267.5 10.64 267.5 9.92 267.5 9.92 267.5 9.17 267.82 8.84 268.58 8.84 268.58 8.84 269.23 8.84 269.23 8.84 269.98 8.84 270.31 9.17 270.31 9.92 270.31 9.92 270.31 25.76 270.31 25.76 270.31 26.52 269.98 26.84 269.23 26.84ZM 267.5 14.78C 267.5 12.59 265.66 11.51 263.86 11.51 260.59 11.51 260.59 13.7 260.59 13.7 260.59 13.7 260.59 21.98 260.59 21.98 260.59 21.98 260.59 24.18 263.86 24.18 265.66 24.18 267.5 23.1 267.5 20.9 267.5 20.9 267.5 14.78 267.5 14.78ZM 242.45 5.68C 240.94 5.68 239.71 4.45 239.71 2.94 239.71 1.43 240.94 0.17 242.45 0.17 243.96 0.17 245.22 1.43 245.22 2.94 245.22 4.45 243.96 5.68 242.45 5.68ZM 244.43 9.92C 244.43 9.92 244.43 25.76 244.43 25.76 244.43 26.52 244.1 26.84 243.35 26.84 243.35 26.84 242.63 26.84 242.63 26.84 241.87 26.84 241.55 26.52 241.55 25.76 241.55 25.76 241.55 12.44 241.55 12.44 241.55 11.69 241.22 11.36 240.47 11.36 240.47 11.36 238.56 11.36 238.56 11.36 237.8 11.36 237.48 10.93 237.48 10.18 237.48 9.31 237.8 8.84 238.56 8.84 238.56 8.84 243.35 8.84 243.35 8.84 244.1 8.84 244.43 9.17 244.43 9.92ZM 223.86 11.51C 223.86 11.51 222.02 11.51 222.02 11.51 220.22 11.51 218.5 12.59 218.5 14.78 218.5 14.78 218.5 23.24 218.5 23.24 218.5 24 218.82 24.32 219.58 24.32 219.58 24.32 221.77 24.32 221.77 24.32 222.53 24.32 222.85 24.75 222.85 25.62 222.85 26.37 222.53 26.84 221.77 26.84 221.77 26.84 213.6 26.84 213.6 26.84 212.85 26.84 212.52 26.37 212.52 25.51 212.52 24.75 212.85 24.32 213.6 24.32 213.6 24.32 214.54 24.32 214.54 24.32 215.29 24.32 215.62 24 215.62 23.24 215.62 23.24 215.58 9.92 215.58 9.92 215.58 9.17 215.9 8.84 216.66 8.84 216.66 8.84 217.31 8.84 217.31 8.84 218.06 8.84 218.39 9.17 218.39 9.92 218.39 9.92 218.39 10.64 218.39 10.64 218.39 10.9 218.46 11 218.53 11 218.6 11 218.68 10.9 218.71 10.82 219.22 9.74 220.94 8.7 223.1 8.7 223.1 8.7 223.86 8.7 223.86 8.7 224.62 8.7 224.94 9.02 224.94 9.78 224.94 9.78 224.94 10.43 224.94 10.43 224.94 11.18 224.62 11.51 223.86 11.51ZM 200.71 63.84C 200.71 63.84 200.06 63.84 200.06 63.84 199.3 63.84 198.98 63.52 198.98 62.76 198.98 62.76 198.98 50.85 198.98 50.85 198.98 50.85 198.98 48.65 196.78 48.65 196.78 48.65 194.27 48.65 194.27 48.65 192.07 48.65 192.07 50.85 192.07 50.85 192.07 50.85 192.07 62.76 192.07 62.76 192.07 63.52 191.75 63.84 190.99 63.84 190.99 63.84 190.34 63.84 190.34 63.84 189.59 63.84 189.26 63.52 189.26 62.76 189.26 62.76 189.26 50.49 189.26 50.49 189.26 50.49 189.23 49.12 190.31 48.62 190.38 48.58 190.49 48.51 190.49 48.44 190.49 48.36 190.38 48.29 190.13 48.29 190.13 48.29 188.15 48.29 188.15 48.29 187.39 48.29 187.07 47.97 187.07 47.21 187.07 47.21 187.07 46.92 187.07 46.92 187.07 46.17 187.39 45.84 188.15 45.84 188.15 45.84 196.78 45.84 196.78 45.84 201.79 45.84 201.79 50.85 201.79 50.85 201.79 50.85 201.79 62.76 201.79 62.76 201.79 63.52 201.46 63.84 200.71 63.84ZM 199.42 26.84C 199.42 26.84 197.94 26.84 197.94 26.84 193.48 26.84 192.94 22.88 192.94 22.02 192.94 22.02 192.94 12.44 192.94 12.44 192.94 11.69 192.61 11.36 191.86 11.36 191.86 11.36 190.81 11.36 190.81 11.36 190.06 11.36 189.73 11.04 189.73 10.28 189.73 10.28 189.73 9.74 189.73 9.74 189.73 8.99 190.06 8.66 190.81 8.66 190.81 8.66 191.86 8.66 191.86 8.66 192.61 8.66 192.94 8.34 192.94 7.58 192.94 7.58 192.94 3.8 192.94 3.8 192.94 3.05 193.3 2.72 194.05 2.72 194.05 2.72 194.77 2.72 194.77 2.72 195.53 2.72 195.85 3.05 195.85 3.8 195.85 3.8 195.85 7.58 195.85 7.58 195.85 8.34 196.1 8.66 196.86 8.66 196.86 8.66 199.38 8.66 199.38 8.66 200.14 8.66 200.46 8.99 200.46 9.74 200.46 9.74 200.46 10.28 200.46 10.28 200.46 11.04 200.14 11.36 199.38 11.36 199.38 11.36 196.82 11.36 196.82 11.36 196.07 11.36 195.74 11.69 195.74 12.44 195.74 12.44 195.74 21.95 195.74 21.95 195.78 22.41 196.07 24.03 197.94 24.03 197.94 24.03 199.42 24.03 199.42 24.03 200.17 24.03 200.5 24.36 200.5 25.11 200.5 25.11 200.5 25.76 200.5 25.76 200.5 26.52 200.17 26.84 199.42 26.84ZM 172.32 26.99C 169.52 26.99 166.35 25.26 166.35 21.55 166.35 21.55 166.35 21.37 166.35 21.37 166.35 20.61 166.67 20.29 167.43 20.25 167.43 20.25 168 20.25 168 20.25 168.8 20.25 169.08 20.65 169.08 21.3 169.08 21.3 169.08 21.66 169.08 21.66 169.08 23.24 170.88 24.29 172.22 24.29 173.47 24.29 175.13 23.64 175.13 22.2 175.13 18.71 166.78 18.81 166.78 13.74 166.78 10.5 169.19 8.59 172.22 8.59 175.02 8.59 177.33 10.32 177.33 13.31 177.33 13.31 177.33 13.49 177.33 13.49 177.33 14.24 177 14.57 176.25 14.6 176.25 14.6 175.67 14.6 175.67 14.6 174.88 14.6 174.59 14.21 174.59 13.56 174.59 13.56 174.59 13.2 174.59 13.2 174.59 12.34 173.44 11.33 172.11 11.33 170.85 11.33 169.77 12.12 169.77 13.56 169.77 16.62 177.9 16.33 177.9 22.2 177.9 25.22 174.99 26.99 172.32 26.99ZM 176.09 45.84C 176.84 45.84 177.17 46.17 177.17 46.92 177.17 46.92 177.17 47.21 177.17 47.21 177.17 47.97 176.84 48.29 176.09 48.29 176.09 48.29 174.11 48.29 174.11 48.29 173.86 48.29 173.75 48.36 173.75 48.44 173.75 48.51 173.86 48.58 173.93 48.62 175.01 49.12 174.97 50.49 174.97 50.49 174.97 50.49 175.01 66.18 175.01 66.18 175.01 66.97 174.5 71.04 170 71.04 170 71.04 165.36 71.04 165.36 71.04 164.61 71.04 164.28 70.72 164.28 69.96 164.28 69.96 164.28 69.31 164.28 69.31 164.28 68.56 164.61 68.23 165.36 68.23 165.36 68.23 170 68.23 170 68.23 171.88 68.23 172.2 66.61 172.2 66.04 172.2 66.04 172.2 60.6 172.2 60.6 172.2 60.35 172.13 60.24 172.06 60.24 171.98 60.24 171.91 60.35 171.88 60.42 171.37 61.5 169.64 62.55 167.48 62.55 162.48 62.55 162.48 57.54 162.48 57.54 162.48 57.54 162.48 50.85 162.48 50.85 162.48 50.85 162.48 45.84 167.48 45.84 167.48 45.84 176.09 45.84 176.09 45.84ZM 165.29 50.85C 165.29 50.85 165.29 57.54 165.29 57.54 165.29 57.54 165.29 59.74 168.56 59.74 170.36 59.74 172.2 58.66 172.2 56.46 172.2 56.46 172.16 50.85 172.16 50.85 172.16 49.7 171.26 48.65 169.97 48.65 169.97 48.65 167.48 48.65 167.48 48.65 165.29 48.65 165.29 50.85 165.29 50.85ZM 154.54 26.84C 154.54 26.84 146.62 26.84 146.62 26.84 141.62 26.84 141.62 21.84 141.62 21.84 141.62 21.84 141.65 9.89 141.65 9.89 141.65 9.13 141.98 8.81 142.73 8.81 142.73 8.81 143.38 8.81 143.38 8.81 144.14 8.81 144.46 9.13 144.46 9.89 144.46 9.89 144.42 21.84 144.42 21.84 144.42 21.84 144.42 24.03 146.62 24.03 146.62 24.03 149.14 24.03 149.14 24.03 151.23 24.03 151.33 22.16 151.33 21.98 151.33 21.98 151.33 9.89 151.33 9.89 151.33 9.13 151.66 8.81 152.41 8.81 152.41 8.81 153.06 8.81 153.06 8.81 153.82 8.81 154.14 9.13 154.14 9.89 154.14 9.89 154.14 20.79 154.14 20.79 154.14 22.63 153.46 23.67 152.38 24.18 152.31 24.21 152.2 24.29 152.2 24.36 152.2 24.43 152.31 24.5 152.56 24.5 152.56 24.5 154.54 24.5 154.54 24.5 155.29 24.5 155.62 24.83 155.62 25.58 155.62 25.58 155.62 25.76 155.62 25.76 155.62 26.52 155.29 26.84 154.54 26.84ZM 124.4 63.99C 121.59 63.99 118.42 62.26 118.42 58.55 118.42 58.55 118.42 58.37 118.42 58.37 118.42 57.61 118.74 57.29 119.5 57.25 119.5 57.25 120.08 57.25 120.08 57.25 120.87 57.25 121.16 57.65 121.16 58.3 121.16 58.3 121.16 58.66 121.16 58.66 121.16 60.24 122.96 61.29 124.29 61.29 125.55 61.29 127.2 60.64 127.2 59.2 127.2 55.71 118.85 55.81 118.85 50.74 118.85 47.5 121.26 45.59 124.29 45.59 127.1 45.59 129.4 47.32 129.4 50.31 129.4 50.31 129.4 50.49 129.4 50.49 129.4 51.24 129.08 51.57 128.32 51.6 128.32 51.6 127.74 51.6 127.74 51.6 126.95 51.6 126.66 51.21 126.66 50.56 126.66 50.56 126.66 50.2 126.66 50.2 126.66 49.34 125.51 48.33 124.18 48.33 122.92 48.33 121.84 49.12 121.84 50.56 121.84 53.62 129.98 53.33 129.98 59.2 129.98 62.22 127.06 63.99 124.4 63.99ZM 128.69 26.84C 128.69 26.84 128.04 26.84 128.04 26.84 127.28 26.84 126.96 26.52 126.96 25.76 126.96 25.76 126.96 25.04 126.96 25.04 126.96 24.79 126.89 24.68 126.82 24.68 126.74 24.68 126.67 24.79 126.64 24.86 126.13 25.94 124.4 26.99 122.24 26.99 117.24 26.99 117.24 21.98 117.24 21.98 117.24 21.98 117.24 13.7 117.24 13.7 117.24 13.7 117.24 8.7 122.24 8.7 124.4 8.7 126.13 9.74 126.64 10.82 126.67 10.9 126.74 11 126.82 11 126.89 11 126.96 10.9 126.96 10.64 126.96 10.64 126.96 2.01 126.96 2.01 126.96 1.25 127.28 0.93 128.04 0.93 128.04 0.93 128.69 0.93 128.69 0.93 129.44 0.93 129.77 1.25 129.77 2.01 129.77 2.01 129.77 25.76 129.77 25.76 129.77 26.52 129.44 26.84 128.69 26.84ZM 126.96 14.78C 126.96 12.59 125.12 11.51 123.32 11.51 120.05 11.51 120.05 13.7 120.05 13.7 120.05 13.7 120.05 21.98 120.05 21.98 120.05 21.98 120.05 24.18 123.32 24.18 125.12 24.18 126.96 23.1 126.96 20.9 126.96 20.9 126.96 14.78 126.96 14.78ZM 103.99 56.39C 103.99 56.39 98.23 56.39 98.23 56.39 97.47 56.39 97.15 56.71 97.15 57.47 97.15 57.47 97.15 58.87 97.15 58.87 97.15 58.87 97.15 61.07 99.34 61.07 99.34 61.07 105.43 61.07 105.43 61.07 106.18 61.07 106.51 61.39 106.51 62.15 106.51 62.15 106.51 62.76 106.51 62.76 106.51 63.52 106.18 63.84 105.43 63.84 105.43 63.84 99.34 63.84 99.34 63.84 94.34 63.84 94.34 58.84 94.34 58.84 94.34 58.84 94.34 50.85 94.34 50.85 94.34 50.85 94.34 45.84 99.34 45.84 99.34 45.84 102.22 45.84 102.22 45.84 107.23 45.84 107.23 50.85 107.23 50.85 107.23 50.85 107.23 53.15 107.23 53.15 107.23 55.42 106.26 56.39 103.99 56.39ZM 104.42 50.81C 104.42 50.81 104.42 48.62 102.22 48.62 102.22 48.62 99.34 48.62 99.34 48.62 97.15 48.62 97.15 50.81 97.15 50.81 97.15 50.81 97.15 52.68 97.15 52.68 97.15 53.44 97.47 53.76 98.23 53.76 98.23 53.76 103.34 53.76 103.34 53.76 104.1 53.76 104.42 53.44 104.42 52.68 104.42 52.68 104.42 50.81 104.42 50.81ZM 104.79 26.84C 104.79 26.84 104.15 26.84 104.15 26.84 103.39 26.84 103.07 26.52 103.07 25.76 103.07 25.76 103.07 13.85 103.07 13.85 103.07 13.85 103.07 11.65 100.87 11.65 100.87 11.65 98.35 11.65 98.35 11.65 96.15 11.65 96.15 13.85 96.15 13.85 96.15 13.85 96.15 25.76 96.15 25.76 96.15 26.52 95.83 26.84 95.07 26.84 95.07 26.84 94.43 26.84 94.43 26.84 93.67 26.84 93.35 26.52 93.35 25.76 93.35 25.76 93.35 13.49 93.35 13.49 93.35 13.49 93.31 12.12 94.39 11.62 94.46 11.58 94.57 11.51 94.57 11.44 94.57 11.36 94.46 11.29 94.21 11.29 94.21 11.29 92.23 11.29 92.23 11.29 91.48 11.29 91.15 10.97 91.15 10.21 91.15 10.21 91.15 9.92 91.15 9.92 91.15 9.17 91.48 8.84 92.23 8.84 92.23 8.84 100.87 8.84 100.87 8.84 105.87 8.84 105.87 13.85 105.87 13.85 105.87 13.85 105.87 25.76 105.87 25.76 105.87 26.52 105.55 26.84 104.79 26.84ZM 75.68 63.84C 75.68 63.84 70.03 63.84 70.03 63.84 69.35 63.84 69.06 63.55 69.06 62.87 69.06 62.87 69.06 39.62 69.06 39.62 69.06 38.93 69.35 38.65 70.03 38.65 70.03 38.65 75.68 38.65 75.68 38.65 78.74 38.65 82.99 39.9 82.99 46.17 82.99 46.17 82.99 56.32 82.99 56.32 82.99 62.58 78.74 63.84 75.68 63.84ZM 80.29 45.84C 80.29 43.25 78.88 41.31 75.43 41.31 75.43 41.31 72.91 41.31 72.91 41.31 72.08 41.31 71.72 41.67 71.72 42.5 71.72 42.5 71.72 59.99 71.72 59.99 71.72 60.82 72.08 61.18 72.91 61.18 72.91 61.18 75.43 61.18 75.43 61.18 78.88 61.18 80.29 59.23 80.29 56.64 80.29 56.64 80.29 45.84 80.29 45.84ZM 78.06 24.32C 78.06 24.32 80 24.32 80 24.32 80.76 24.32 81.08 24.75 81.08 25.62 81.08 26.37 80.76 26.84 80 26.84 80 26.84 71.11 26.84 71.11 26.84 70.35 26.84 70.03 26.37 70.03 25.51 70.03 24.75 70.35 24.32 71.11 24.32 71.11 24.32 73.02 24.32 73.02 24.32 73.77 24.32 74.1 24 74.1 23.24 74.1 23.24 74.1 5.24 74.1 5.24 74.1 4.49 73.77 4.16 73.02 4.16 73.02 4.16 71.11 4.16 71.11 4.16 70.35 4.16 70.03 3.73 70.03 2.98 70.03 2.11 70.35 1.65 71.11 1.65 71.11 1.65 80 1.65 80 1.65 80.76 1.65 81.08 2.11 81.08 2.98 81.08 3.73 80.76 4.16 80 4.16 80 4.16 78.06 4.16 78.06 4.16 77.3 4.16 76.98 4.49 76.98 5.24 76.98 5.24 76.98 23.24 76.98 23.24 76.98 24 77.3 24.32 78.06 24.32ZM 53.7 30.8C 53.13 33.15 52.77 35.34 51.91 37.33 48.66 44.83 43.43 49.35 35.8 52.49 34.29 53.11 32.54 53.27 30.83 53.68 30.02 53.88 29.12 53.74 28.32 53.92 27.59 54.09 25.38 53.94 24.78 53.8 23.83 53.59 22.98 53.74 22.09 53.5 20.04 52.97 18.13 52.47 16.4 51.71 10.35 49.06 5.16 44.31 2.51 38.29 1.95 37.02 1.6 35.81 1.14 34.4 0.73 33.16 0.57 31.71 0.24 30.32 0.2 29.64 0.16 28.96 0.12 28.29-0.09 27.32-0.03 25.65 0.18 24.75 0.22 24.21 0.26 23.67 0.3 23.13 0.71 21.43 0.87 19.68 1.5 18.16 4.63 10.53 9.15 5.3 16.64 2.05 18.43 1.27 20.38 0.89 22.45 0.37 23.23 0.27 24.01 0.17 24.78 0.07 25.08 0 25.47 0.14 25.68 0.01 33.02-0.13 38.11 1.9 42.33 4.86 46.62 7.88 49.72 11.64 51.91 16.78 52.47 18.12 52.91 19.63 53.34 21.16 53.5 22.13 53.66 23.11 53.82 24.09 53.82 24.31 53.82 24.53 53.82 24.75 54.02 25.65 54.1 27.32 53.88 28.29 53.69 29.13 53.9 29.99 53.7 30.8ZM 29.39 46.59C 29.66 46.97 30.19 48.05 30.65 48.15 30.98 47.94 31.5 48.02 31.9 47.91 32.57 47.72 33.34 47.53 33.94 47.25 33.6 46.91 33.08 46.75 32.68 46.47 32.05 46.03 31.45 45.51 30.83 45.04 30.61 44.8 30.39 44.56 30.17 44.32 30 44.19 29.81 44.12 29.69 43.96 29.05 43.11 28.27 42.38 27.66 41.51 27.3 41 27.08 40.32 26.64 39.89 27.1 42.71 28.04 44.72 29.39 46.59ZM 19.82 47.19C 20.23 47.23 20.56 47.44 20.9 47.55 21.68 47.73 22.46 47.91 23.23 48.09 23.23 48.07 23.23 48.05 23.23 48.03 22.94 47.72 22.84 47.28 22.63 46.89 21.77 45.22 21.31 43.36 20.78 41.27 20.7 40.53 20.62 39.79 20.54 39.06 20.47 38.73 20.63 38.27 20.48 38.04 20.39 38.75 20.02 39.46 19.82 40.13 19.34 41.79 19.24 45.56 19.82 47.19ZM 11.81 41.93C 12.35 42.4 12.89 42.88 13.43 43.36 13.43 43.08 13.43 42.8 13.43 42.52 13.53 41.69 13.62 40.85 13.72 40.01 14.15 38.37 14.52 36.79 15.16 35.41 15.32 35.06 16.09 33.51 16.06 33.37 15.52 33.85 14.98 34.33 14.44 34.81 13.12 36.55 11.51 38.47 10.91 40.91 11.28 41.15 11.55 41.58 11.81 41.93ZM 6.67 32.42C 6.86 33.08 7.05 33.85 7.33 34.45 7.84 33.94 8.16 33.13 8.58 32.54 9.73 30.94 11.22 29.56 12.83 28.41 13.37 28.02 13.94 27.43 14.62 27.22 14.62 27.2 14.62 27.18 14.62 27.16 14.58 27.16 14.54 27.16 14.5 27.16 14.29 27.28 14 27.2 13.72 27.27 13.15 27.43 12.49 27.55 11.93 27.75 10.39 28.32 9.13 29.04 7.92 29.91 7.55 30.17 6.52 30.7 6.43 31.16 6.63 31.49 6.55 32.01 6.67 32.42ZM 9.54 19.92C 8.88 20.06 8.09 20.17 7.39 20.22 7.12 21.33 6.7 22.47 6.43 23.69 6.45 23.69 6.47 23.69 6.49 23.69 6.79 23.4 7.23 23.29 7.62 23.09 9.29 22.22 11.16 21.76 13.25 21.24 13.98 21.16 14.72 21.08 15.46 21 15.78 20.92 16.24 21.08 16.48 20.94 15.77 20.85 15.05 20.48 14.38 20.28 13.27 19.95 11.93 19.89 10.61 19.86 10.37 20.01 9.88 19.85 9.54 19.92ZM 13.6 11.43C 13.07 12.22 11.48 13.02 11.15 13.94 11.41 13.94 11.67 13.94 11.93 13.94 12.27 14.14 12.87 13.96 13.31 14.06 14 14.18 14.7 14.3 15.4 14.42 16.67 14.78 17.95 15.11 19.11 15.61 19.78 15.95 20.46 16.29 21.14 16.63 21.14 16.61 21.14 16.59 21.14 16.57 20.42 16.07 19.99 15.13 19.29 14.6 17.75 13.43 15.73 11.95 13.6 11.43ZM 25.39 9.45C 24.83 8.57 24.08 7.78 23.53 6.88 23.47 6.88 23.41 6.88 23.35 6.88 23.02 7.08 22.5 7.01 22.1 7.12 21.43 7.31 20.66 7.5 20.06 7.78 20.55 8.28 21.61 8.78 22.22 9.22 23.76 10.32 25.07 11.84 26.16 13.4 26.53 13.93 27.09 14.47 27.3 15.14 27.32 15.14 27.34 15.14 27.36 15.14 26.99 12.93 26.38 11.04 25.39 9.45ZM 27 21C 23.69 21 21 23.69 21 27 21 30.31 23.69 33 27 33 30.31 33 33 30.31 33 27 33 23.69 30.31 21 27 21ZM 34.18 7.84C 33.77 7.79 33.44 7.59 33.1 7.48 32.32 7.3 31.54 7.12 30.77 6.94 31.09 7.54 31.41 8.14 31.72 8.74 32.28 10 32.65 11.38 33.04 12.8 33.31 13.8 33.22 14.92 33.46 15.97 33.53 16.3 33.37 16.76 33.52 16.99 33.61 16.28 33.98 15.56 34.18 14.9 34.66 13.24 34.76 9.47 34.18 7.84ZM 32.86 38.4C 34.16 40.4 37.75 42.96 40.4 43.6 40.93 42.81 42.52 42.01 42.85 41.09 42.51 41.09 42.17 41.09 41.83 41.09 41.5 40.9 40.93 41.06 40.51 40.97 39.68 40.81 38.84 40.65 38 40.49 36.84 40.13 35.67 39.77 34.59 39.29 34.02 39.04 33.47 38.6 32.86 38.4ZM 37.52 34.09C 38.04 34.16 38.51 34.42 38.96 34.57 39.74 34.73 40.51 34.89 41.29 35.05 43.03 35.45 45.01 34.92 46.61 34.81 46.82 33.99 47.08 33.15 47.33 32.24 47.4 32 47.6 31.55 47.51 31.34 47.21 31.63 46.77 31.74 46.38 31.94 44.71 32.81 42.84 33.27 40.75 33.79 40.02 33.87 39.28 33.95 38.54 34.03 38.22 34.11 37.76 33.95 37.52 34.09ZM 40.57 11.67C 40.64 14.4 39.91 17.24 39.08 19.2 38.68 20.02 38.28 20.84 37.88 21.65 37.9 21.65 37.92 21.65 37.94 21.65 38.44 20.94 39.39 20.5 39.92 19.8 41.08 18.26 42.57 16.25 43.09 14.12 42.29 13.59 41.49 12 40.57 11.67ZM 46.61 20.58C 46.37 21.36 45.68 21.99 45.24 22.61 44.07 24.23 42.69 25.53 41.05 26.68 40.53 27.05 39.98 27.6 39.32 27.81 39.32 27.83 39.32 27.85 39.32 27.87 39.36 27.87 39.4 27.87 39.44 27.87 39.65 27.75 39.94 27.83 40.22 27.75 40.75 27.62 41.36 27.53 41.89 27.33 43.5 26.75 44.83 26.03 46.08 25.12 46.44 24.86 47.48 24.26 47.57 23.81 47.13 23.08 47.24 21.08 46.61 20.58ZM 27 29C 25.9 29 25 28.1 25 27 25 25.9 25.9 25 27 25 28.1 25 29 25.9 29 27 29 28.1 28.1 29 27 29ZM 147.15 42.68C 145.64 42.68 144.41 41.45 144.41 39.94 144.41 38.43 145.64 37.17 147.15 37.17 148.66 37.17 149.92 38.43 149.92 39.94 149.92 41.45 148.66 42.68 147.15 42.68ZM 143.26 45.84C 143.26 45.84 148.05 45.84 148.05 45.84 148.8 45.84 149.13 46.17 149.13 46.92 149.13 46.92 149.13 62.76 149.13 62.76 149.13 63.52 148.8 63.84 148.05 63.84 148.05 63.84 147.33 63.84 147.33 63.84 146.57 63.84 146.25 63.52 146.25 62.76 146.25 62.76 146.25 49.44 146.25 49.44 146.25 48.69 145.92 48.36 145.17 48.36 145.17 48.36 143.26 48.36 143.26 48.36 142.5 48.36 142.18 47.93 142.18 47.18 142.18 46.31 142.5 45.84 143.26 45.84Z" fill="rgb(153,165,169)"/></svg>