<?xml version="1.0" encoding="UTF-8"?>
<svg xmlns="http://www.w3.org/2000/svg" xmlns:xlink="http://www.w3.org/1999/xlink" width="595pt" height="842pt" viewBox="0 0 595 842" version="1.1">
<defs>
<clipPath id="clip1">
  <path d="M 0 0.101562 L 595 0.101562 L 595 841.898438 L 0 841.898438 Z M 0 0.101562 "/>
</clipPath>
</defs>
<g id="surface1">
<g clip-path="url(#clip1)" clip-rule="nonzero">
<path style=" stroke:none;fill-rule:evenodd;fill:rgb(100%,100%,100%);fill-opacity:1;" d="M 0 0 L 595.199219 0 L 595.199219 841.898438 L 0 841.898438 Z M 0 0 "/>
</g>
<path style=" stroke:none;fill-rule:evenodd;fill:rgb(100%,100%,100%);fill-opacity:1;" d="M 276.699219 165.101562 L 406.300781 165.101562 L 406.300781 316.300781 L 276.699219 316.300781 Z M 276.699219 165.101562 "/>
<path style=" stroke:none;fill-rule:evenodd;fill:rgb(94.116211%,48.626709%,0%);fill-opacity:1;" d="M 263.601562 188.800781 C 218.101562 195.398438 177.601562 216.601562 148.898438 247.398438 C 120.601562 277.800781 103.601562 316.800781 103.601562 359.800781 C 103.601562 395.800781 115.5 429.300781 135.800781 457.101562 C 156.898438 486.101562 187 508.699219 222.300781 522.199219 L 220.699219 526.199219 C 184.300781 512.601562 153.601562 489.199219 132.101562 459.5 C 111.199219 431 99 396.601562 99 359.800781 C 99 315.800781 116.601562 275.699219 145.398438 244.601562 C 174.800781 213.199219 216.199219 191.199219 262.898438 184.601562 Z M 263.601562 188.800781 Z M 416.199219 497.699219 C 439.5 481.101562 458.5 459.5 471.5 435.101562 C 484 411.5 491.199219 385.101562 491.199219 357.101562 C 491.199219 307 469.101562 261.699219 433.199219 228.699219 C 397.101562 195.898438 347.601562 175.5 292.800781 175.5 C 237.101562 175.5 186.800781 196.199219 150 229.601562 C 113.800781 262.898438 91.199219 308.898438 91.199219 359.800781 C 91.199219 411.5 114.199219 458.300781 151.101562 492.300781 C 188.300781 526 239.398438 547.101562 296 547.101562 C 353.300781 547.101562 405.300781 525.898438 443.199219 491.300781 C 480.699219 456.898438 503.800781 409.398438 503.800781 356.898438 C 503.800781 303.699219 480.300781 255.300781 442.101562 220.300781 C 403.800781 185.398438 351.101562 163.800781 292.601562 163.800781 C 233.398438 163.800781 179.601562 185.699219 140.800781 221.300781 C 102.101562 256.699219 78.101562 305.699219 78.101562 360 C 78.101562 414.800781 102.5 464.898438 141.898438 500.800781 C 181.300781 536.699219 235.800781 559 296 559 C 356.601562 559 411.898438 536.699219 452 500.5 C 491.800781 464.199219 516.800781 413.898438 517.300781 358.398438 L 521.800781 358.398438 C 521.398438 415.101562 495.898438 466.398438 455.199219 503.601562 C 414.300781 540.5 357.898438 563.300781 296 563.300781 C 234.5 563.300781 178.898438 540.699219 138.800781 503.898438 C 98.398438 467.101562 73.601562 416 73.601562 360 C 73.601562 304.601562 98.101562 254.398438 137.601562 218.199219 C 177.398438 181.898438 232.300781 159.601562 292.601562 159.601562 C 352.199219 159.601562 406.199219 181.601562 445.199219 217.300781 C 484.398438 252.898438 508.5 302.5 508.5 356.898438 C 508.5 410.601562 484.800781 459.199219 446.300781 494.398438 C 407.699219 529.699219 354.398438 551.300781 296 551.300781 C 238.101562 551.300781 185.898438 529.800781 148 495.300781 C 110.101562 460.5 86.601562 412.699219 86.601562 359.800781 C 86.601562 307.800781 109.699219 260.699219 146.898438 226.5 C 184.300781 192.398438 236 171.398438 292.800781 171.398438 C 348.898438 171.398438 399.5 192.101562 436.300781 225.601562 C 473.101562 259.300781 495.699219 305.699219 495.699219 357.101562 C 495.699219 385.699219 488.5 412.898438 475.699219 437 C 462.199219 462.101562 442.800781 484 418.898438 501.101562 Z M 416.199219 497.699219 "/>
<path style=" stroke:none;fill-rule:evenodd;fill:rgb(94.116211%,48.626709%,0%);fill-opacity:1;" d="M 438.5 212.800781 C 496.5 289.300781 525.800781 158.199219 433.5 169.101562 C 407.398438 172.199219 395.398438 178.699219 396.898438 187.398438 C 407.101562 188.199219 433.5 206.199219 438.5 212.800781 Z M 438.5 212.800781 Z M 475.5 224.300781 C 470.699219 228 471 216.601562 466.199219 207.898438 C 461.398438 199.5 452.898438 196.898438 457.898438 193.199219 C 462.699219 189.601562 470.5 193.601562 475.300781 202.199219 C 480.300781 210.699219 480.300781 220.699219 475.5 224.300781 Z M 475.5 224.300781 "/>
<path style=" stroke:none;fill-rule:evenodd;fill:rgb(94.116211%,48.626709%,0%);fill-opacity:1;" d="M 151.898438 208.800781 C 111.699219 261.398438 91.398438 171.101562 155.398438 178.5 C 173.5 180.800781 181.800781 186.300781 180.5 192.199219 C 175.699219 189.398438 155.199219 204.300781 151.898438 208.800781 Z M 151.898438 208.800781 Z M 126.199219 216.699219 C 129.5 219.101562 129.300781 211.398438 132.800781 205.5 C 136.101562 199.398438 141.898438 197.5 138.601562 195.101562 C 135.199219 192.5 129.699219 195.398438 126.300781 201.300781 C 123 207.398438 122.800781 214.101562 126.199219 216.699219 Z M 126.199219 216.699219 "/>
<path style=" stroke:none;fill-rule:evenodd;fill:rgb(94.116211%,48.626709%,0%);fill-opacity:1;" d="M 213.5 598.601562 C 213.5 598.398438 212.699219 598.398438 211.199219 598.199219 C 209.800781 598.199219 207.898438 598.199219 205.5 598.199219 C 203.300781 598.101562 200.5 598.199219 197.398438 598.199219 C 194 598.199219 190.699219 598.398438 187 598.398438 C 187.199219 596.199219 187.199219 593.601562 187.199219 590.800781 C 187.398438 588 187.398438 585.398438 187.398438 583 C 187.398438 580.601562 187.398438 578.699219 187.398438 577 C 187.398438 575.300781 187.398438 574.199219 187.199219 573.898438 C 187.199219 573.5 186.5 573.398438 184.800781 573.199219 C 183.101562 572.898438 181.101562 572.898438 178.898438 572.898438 C 176.5 572.898438 173.898438 572.898438 171.101562 572.898438 C 168.199219 572.898438 165.601562 573 163.199219 573.199219 C 160.601562 573.199219 158.300781 573.5 156.699219 573.699219 C 154.800781 574 153.699219 574.199219 153.398438 574.601562 C 153 574.800781 152.601562 575.898438 152.101562 577.800781 C 151.5 579.699219 150.898438 582 150.199219 584.800781 C 149.699219 587.300781 149.101562 590.101562 148.5 593.101562 C 148 596 147.601562 598.601562 147.398438 600.800781 C 140.601562 601.199219 135.199219 601.5 131 601.898438 C 126.699219 602.101562 124.5 602.601562 124 602.898438 C 123.800781 603.101562 123.601562 603.898438 123.199219 605.699219 C 123 607.199219 122.898438 609.300781 122.5 611.699219 C 122.300781 614.300781 122.101562 617.101562 121.898438 620 L 121.398438 628.300781 C 121.199219 631 121 633.5 120.800781 635.601562 C 120.601562 637.601562 120.601562 639.199219 120.601562 640 C 120.601562 640.601562 120.800781 640.898438 121.699219 641.300781 C 122.5 641.601562 123.601562 641.800781 124.699219 641.898438 C 126 642.101562 127.300781 642.101562 128.699219 641.898438 C 130.101562 641.898438 131.398438 641.800781 132.601562 641.398438 C 133.898438 641.300781 135 640.898438 135.800781 640.601562 C 136.699219 640 137.101562 639.699219 137.300781 639.199219 C 137.300781 638.300781 137.300781 636.699219 137.5 634.699219 C 137.5 632.601562 137.601562 630.398438 137.601562 627.800781 C 137.800781 625.398438 137.800781 622.898438 138 620.5 C 138 618.101562 138 616 138 614.800781 C 138.601562 614.800781 139.898438 615 141.699219 615 C 143.699219 615 146 615 148.699219 614.800781 C 151.699219 614.800781 154.699219 614.800781 158 614.601562 C 161.5 614.601562 164.800781 614.5 168.300781 614.5 C 171.898438 614.300781 175.398438 614.101562 178.699219 614 C 182 613.800781 185 613.800781 187.800781 613.601562 C 190.5 613.398438 192.800781 613.300781 194.800781 613.101562 C 196.601562 612.898438 197.699219 612.898438 198.300781 612.699219 C 198.300781 613.300781 198.300781 614.101562 198.300781 615.5 C 198.101562 617.101562 198.101562 618.601562 198.101562 620.5 C 198.101562 622.398438 198.101562 624.300781 198.101562 626.398438 C 197.898438 628.5 197.898438 630.5 197.898438 632.300781 C 197.898438 634.199219 197.898438 635.898438 197.898438 637.300781 C 197.699219 638.699219 197.699219 639.5 197.699219 640 C 197.699219 640.398438 198.101562 640.898438 198.898438 641.300781 C 199.601562 641.601562 200.5 641.800781 201.601562 642.101562 C 202.898438 642.300781 204.199219 642.300781 205.5 642.5 C 206.800781 642.5 208.101562 642.300781 209.199219 642.101562 C 210.5 641.898438 211.601562 641.601562 212.5 641.300781 C 213.300781 640.699219 213.800781 640.199219 214 639.398438 C 214.199219 638.800781 214.398438 637.601562 214.398438 635.601562 C 214.601562 633.5 214.601562 631 214.601562 628.101562 C 214.601562 625.199219 214.601562 622.300781 214.601562 619 C 214.601562 615.5 214.601562 612.398438 214.601562 609.5 C 214.398438 606.699219 214.398438 604.300781 214.199219 602.199219 C 214 600.101562 213.800781 599.101562 213.5 598.601562 Z M 213.5 598.601562 Z M 160.800781 600.300781 C 161 599.101562 161 597.699219 161.300781 596.300781 C 161.5 595 161.699219 593.601562 162.101562 592.199219 C 162.199219 590.800781 162.601562 589.601562 162.800781 588.601562 C 163.199219 587.300781 163.300781 586.5 163.5 585.800781 C 164.800781 585.800781 165.898438 585.800781 166.699219 585.800781 C 167.601562 585.800781 168.300781 585.800781 168.898438 585.800781 C 169.5 585.800781 170 585.800781 170.398438 585.601562 C 170.898438 585.601562 171.5 585.601562 172.199219 585.601562 C 172.398438 588.699219 172.601562 591.5 172.601562 594.101562 C 172.601562 596.699219 172.601562 598.800781 173 600.300781 C 171.5 600.5 170.398438 600.699219 169.5 600.699219 C 168.300781 600.699219 167.398438 600.699219 166.5 600.5 C 165.699219 600.5 164.800781 600.5 163.898438 600.300781 C 163 600.300781 161.898438 600.300781 160.800781 600.300781 Z M 160.800781 600.300781 Z M 237.101562 636.898438 C 240.101562 637.101562 242.898438 636.601562 245.5 635.601562 C 247.898438 634.5 250.101562 632.898438 252.101562 631.199219 C 254 629.300781 255.601562 627.300781 256.699219 624.800781 C 258 622.601562 259 620 259.300781 617.601562 C 259.898438 614.800781 259.898438 612.199219 259.699219 609.800781 C 259.300781 607.398438 258.601562 605.101562 257.5 603.101562 C 256.199219 601.199219 254.5 599.398438 252.300781 598.101562 C 250.300781 596.898438 247.5 596 244.300781 595.800781 C 241.199219 595.5 238.398438 596 236 597 C 233.398438 597.898438 231.199219 599.398438 229.398438 601.199219 C 227.5 603.101562 226 605.300781 224.898438 607.699219 C 223.601562 610.199219 222.898438 612.601562 222.5 615.199219 C 222 618.101562 222 620.5 222.300781 623.101562 C 222.699219 625.699219 223.5 628 224.601562 630 C 225.898438 632.101562 227.5 633.699219 229.5 635 C 231.601562 636.199219 234 636.898438 237.101562 636.898438 Z M 237.101562 636.898438 Z M 239.601562 625.398438 C 238.300781 625.199219 236.898438 624.800781 236.199219 624 C 235.300781 622.898438 234.699219 621.898438 234.398438 620.5 C 234.199219 619.300781 234 617.898438 234.398438 616.199219 C 234.5 614.601562 234.898438 613.300781 235.699219 612.101562 C 236.398438 610.699219 237.300781 609.601562 238.300781 608.898438 C 239.398438 608.300781 240.699219 607.898438 242.300781 607.898438 C 243.800781 608.101562 245.101562 608.800781 245.800781 609.601562 C 246.800781 610.5 247.300781 611.5 247.699219 612.898438 C 248.101562 614.101562 248.101562 615.5 247.898438 617.199219 C 247.5 618.601562 247.101562 620 246.398438 621.199219 C 245.699219 622.398438 244.699219 623.5 243.601562 624.199219 C 242.5 625 241 625.398438 239.601562 625.398438 Z M 239.601562 625.398438 Z M 298.300781 586.101562 C 297.101562 588.199219 296.101562 589.800781 295 590.800781 C 294.101562 591.800781 293 592.699219 291.699219 593.398438 C 290.398438 594.101562 288.898438 594.800781 287.101562 595.5 C 285.199219 596.199219 282.800781 597.199219 280 598.800781 C 277.699219 600 275.601562 601.699219 273.898438 603.601562 C 272.300781 605.5 271 607.601562 269.898438 609.601562 C 269 611.898438 268.199219 614.101562 267.601562 616.5 C 267.101562 619 266.898438 621.199219 266.898438 623.5 C 266.898438 625.699219 267.300781 627.601562 267.601562 629.5 C 268 631.398438 268.800781 632.800781 269.5 634 C 271.199219 636.601562 273.398438 638.699219 275.800781 639.898438 C 278.199219 641.101562 280.800781 641.800781 283.5 641.898438 C 286.300781 642.101562 288.898438 641.800781 291.5 641.101562 C 293.898438 640.398438 296.101562 639.398438 298.199219 638 C 300.398438 636.398438 302.101562 634.5 303.300781 632.300781 C 304.5 630 305.199219 627.800781 305.398438 625.398438 C 305.601562 623.101562 305.199219 620.699219 304.5 618.601562 C 303.5 616.199219 302.199219 614.300781 300.199219 612.699219 C 298.300781 611.398438 296.101562 610.300781 293.898438 610 C 291.5 609.601562 289.300781 609.601562 287.300781 610 C 285.199219 610.300781 283.199219 611 281.5 612.101562 C 279.898438 613.101562 278.601562 614.101562 277.5 615.5 L 276.699219 615.5 C 277.300781 613.101562 278.800781 611 281.199219 608.898438 C 283.398438 606.898438 286.898438 605.5 291.5 604.601562 C 293.898438 604.300781 296.101562 603.800781 298.300781 603.101562 C 300.398438 602.601562 302.199219 601.699219 303.898438 600.699219 C 305.699219 599.800781 307 598.601562 308.398438 597.199219 C 309.5 595.601562 310.398438 593.898438 311.101562 591.800781 C 311.699219 589.898438 311.5 588.199219 310.601562 586.800781 C 309.601562 585.300781 308.398438 584.199219 306.898438 583.5 C 305.398438 582.898438 303.898438 582.699219 302.199219 583 C 300.601562 583.398438 299.300781 584.398438 298.300781 586.101562 Z M 298.300781 586.101562 Z M 278.898438 623.5 C 279.699219 621.699219 281 620.398438 282.601562 619.699219 C 284.300781 619 285.800781 618.800781 287.398438 619.101562 C 288.898438 619.300781 290.199219 620.199219 291.101562 621.398438 C 292.101562 622.601562 292.101562 624.300781 291.300781 626.398438 C 290.800781 628.101562 289.699219 629.300781 287.800781 630.199219 C 286.199219 630.898438 284.5 631.199219 282.800781 631 C 281.300781 630.699219 280 630 279.101562 628.800781 C 278.199219 627.601562 278 625.898438 278.898438 623.5 Z M 278.898438 623.5 Z M 328.898438 601.898438 L 328.898438 598.398438 C 328.898438 598.101562 328.300781 597.699219 327 597.398438 C 325.898438 597.199219 324.398438 597 323 597.199219 C 321.5 597.199219 320.199219 597.398438 318.898438 597.699219 C 317.601562 598.101562 316.898438 598.601562 316.699219 599.300781 C 316.699219 599.800781 316.5 601.300781 316.5 603.800781 L 315.898438 613.101562 C 315.800781 616.699219 315.601562 620.898438 315.398438 625 C 315.199219 629.101562 315 633.101562 314.800781 636.699219 C 314.601562 640.601562 314.398438 643.699219 314.199219 646.398438 C 314.199219 649 314.101562 650.699219 314.101562 651.5 C 314.101562 652.101562 314.800781 652.800781 316.101562 653.199219 C 317.601562 653.699219 319.101562 653.898438 320.699219 653.898438 C 322.398438 653.898438 324.101562 653.699219 325.398438 653.199219 C 326.800781 652.601562 327.601562 651.800781 327.601562 650.699219 C 327.800781 647.300781 327.800781 643.699219 327.601562 640.199219 C 327.601562 636.898438 327.398438 633.101562 327.398438 629.101562 C 328.898438 629.699219 330.699219 630 332.601562 630 C 334.398438 630 336.398438 629.699219 338.5 629 C 340.5 628.300781 342.398438 627.398438 344.199219 626.101562 C 346.101562 624.800781 347.699219 623.101562 349.199219 621 C 351.199219 617.898438 352.699219 614.800781 353.300781 612.199219 C 353.800781 609.601562 353.699219 607.199219 353.101562 605.300781 C 352.398438 603.199219 351.199219 601.699219 349.601562 600.5 C 347.898438 599.300781 346.101562 598.398438 343.699219 598.101562 C 341.5 597.699219 339.101562 597.898438 336.398438 598.398438 C 333.898438 599.101562 331.300781 600.101562 328.898438 601.898438 Z M 328.898438 601.898438 Z M 328.5 612.199219 C 330.300781 610.699219 332 609.601562 333.5 609.300781 C 335.199219 608.800781 336.398438 608.898438 337.398438 609.5 C 338.5 610 339.101562 610.800781 339.199219 612.199219 C 339.398438 613.601562 339.101562 615.300781 338.101562 617.601562 C 337.601562 619 336.601562 620 335.699219 620.5 C 334.800781 621.199219 333.699219 621.398438 332.601562 621.601562 C 331.5 621.601562 330.5 621.398438 329.601562 621 C 328.699219 620.699219 327.898438 620.398438 327.398438 619.800781 C 327.601562 619 327.601562 618.300781 327.800781 617.398438 L 328.101562 614.800781 C 328.300781 614 328.5 613.101562 328.5 612.199219 Z M 328.5 612.199219 Z M 418.898438 600 C 418.898438 599.398438 418.800781 599.101562 418.199219 598.601562 C 417.699219 598.199219 417.101562 597.898438 416.199219 597.5 C 415.398438 597.199219 414.5 597 413.398438 596.898438 C 412.5 596.5 411.398438 596.5 410.398438 596.5 C 409 596.5 407.699219 596.699219 406.5 597.199219 C 405.398438 597.699219 405.101562 598.601562 405.101562 600 L 405.101562 605.101562 C 405.101562 607.398438 405.101562 610 405.101562 612.601562 C 405.101562 615.300781 405.101562 618.101562 405.300781 621 C 405.300781 623.800781 405.300781 626.398438 405.398438 628.800781 C 405.398438 631.199219 405.398438 633.300781 405.601562 635.199219 C 405.800781 636.898438 406 638 406.199219 638.699219 C 406.398438 639.199219 406.898438 639.699219 407.800781 639.898438 C 408.601562 640.199219 409.699219 640.398438 411 640.398438 C 412.101562 640.398438 413 640.398438 414.101562 640 C 415.398438 639.898438 416.398438 639.5 417.300781 639 C 418 638.300781 418.800781 637.800781 419.5 636.898438 C 420 636.101562 420.398438 635 420.398438 633.800781 C 420.398438 633.699219 420.199219 633.5 420.199219 633.300781 C 420.199219 633.101562 420.199219 632.898438 420.199219 632.800781 C 420 631.398438 419.898438 629.699219 419.699219 627.601562 C 419.699219 625.5 419.5 623.5 419.5 621.199219 C 419.300781 619 419.300781 616.5 419.300781 614.300781 C 419.101562 612.101562 419.101562 610 419.101562 608.101562 C 419.101562 606.199219 419.101562 604.5 419.101562 603.101562 C 419.101562 601.5 419.101562 600.5 418.898438 600 Z M 418.898438 600 Z M 375.5 614.5 C 375.800781 613.601562 376 612.398438 376.199219 610.800781 C 376.398438 609.101562 376.601562 607.398438 376.800781 605.699219 C 377 603.898438 377 602.199219 377 600.5 C 377.101562 598.898438 377.101562 597.699219 377.101562 597 C 377.101562 596.199219 376.398438 595.5 374.898438 595 C 373.601562 594.398438 372 594.300781 370.300781 594.101562 C 368.601562 593.898438 367.101562 594.101562 365.699219 594.398438 C 364.199219 594.800781 363.699219 595.300781 363.699219 596.199219 C 363.699219 596.5 363.5 597.5 363.5 599.601562 C 363.5 601.5 363.300781 603.898438 363.300781 606.699219 C 363.300781 609.601562 363.101562 612.601562 363.101562 615.898438 C 363.101562 619.5 362.898438 622.601562 362.898438 625.5 C 362.898438 628.5 362.699219 631.199219 362.699219 633.5 C 362.699219 635.699219 362.699219 637.101562 362.898438 637.800781 C 362.898438 639.199219 363.101562 640 363.5 640.601562 C 364 641.101562 364.398438 641.398438 364.800781 641.300781 C 370.101562 640.898438 374.898438 640 379.398438 638.699219 C 384 637.5 387.699219 635.699219 390.601562 633.699219 C 393.601562 631.800781 395.800781 629.300781 397.101562 626.699219 C 398.398438 624.199219 398.398438 621.398438 397.5 618.398438 C 396.699219 616.199219 395.601562 614.601562 394.398438 613.398438 C 393.101562 612.199219 391.398438 611.398438 389.300781 611 C 387.5 610.699219 385.300781 610.800781 383.101562 611.398438 C 380.699219 611.898438 378.101562 612.898438 375.5 614.5 Z M 375.5 614.5 Z M 375.300781 622.300781 C 376 621.398438 377 620.898438 378.101562 620.398438 C 379.199219 619.800781 380.101562 619.699219 381.199219 619.5 C 382.101562 619.5 383.101562 619.5 383.800781 619.800781 C 384.5 620.199219 385.101562 620.898438 385.5 621.601562 C 385.800781 622.898438 385.800781 624.199219 385.300781 625.199219 C 384.699219 626.199219 383.800781 627.101562 382.699219 627.800781 C 381.601562 628.5 380.300781 629 378.800781 629.300781 C 377.300781 629.898438 375.800781 630 374.5 630 C 374.398438 628 374.398438 626.199219 374.699219 624.699219 C 374.898438 623.101562 375.300781 622.398438 375.300781 622.300781 Z M 375.300781 622.300781 Z M 466.699219 608.101562 C 465.398438 608.398438 463.898438 609.300781 462 610.5 C 460.199219 611.699219 458.199219 613.101562 456.101562 614.5 C 454.300781 616 452.199219 617.601562 450.398438 619.101562 L 445.601562 622.898438 C 445.199219 623.5 444.601562 623.601562 444.5 623.601562 C 444.300781 623.601562 444.101562 623.5 444.101562 623.300781 L 444.101562 622.898438 C 444.601562 620.5 445 618.300781 445.199219 615.898438 C 445.601562 613.601562 445.601562 611.398438 445.601562 609.300781 C 445.601562 608.601562 445.398438 608.300781 444.800781 607.699219 C 444.300781 607.398438 443.5 607 442.601562 606.699219 C 441.699219 606.5 440.800781 606.199219 439.699219 606 C 438.699219 605.800781 437.601562 605.800781 436.699219 605.800781 C 434.5 605.800781 433 606 432.300781 606.699219 C 431.699219 607.398438 431.300781 608.398438 431.300781 610 C 431.300781 611.5 431.300781 613.601562 431.5 616.199219 C 431.5 619 431.5 621.699219 431.699219 624.5 C 431.898438 627.300781 432.101562 629.898438 432.300781 632.398438 C 432.5 635 432.601562 637.101562 432.800781 638.5 C 433 639.699219 433.601562 640.199219 434.300781 640.199219 C 435.398438 640.199219 438 639 442.199219 636.601562 C 446.300781 634 451.898438 629.898438 458.699219 624.199219 C 459.300781 623.601562 459.800781 623.300781 460 623.300781 L 460.199219 624.5 C 460.199219 625.199219 460.398438 626.199219 460.398438 627.398438 C 460.5 628.601562 460.5 629.898438 460.699219 631.199219 C 460.898438 632.601562 460.898438 634 461.101562 635.199219 C 461.101562 636.398438 461.300781 637.601562 461.300781 638.5 C 461.5 639.398438 461.5 640 461.5 640.398438 C 461.699219 640.898438 462 641.300781 462.601562 641.398438 C 463 641.800781 463.699219 641.800781 464.398438 641.800781 C 465.398438 641.800781 466.5 641.601562 467.601562 641.300781 C 468.898438 640.898438 470 640.601562 471.101562 640 C 472 639.5 473 638.800781 473.699219 638.101562 C 474.398438 637.601562 474.800781 636.898438 474.800781 636.398438 C 474.800781 635.601562 474.601562 634.199219 474.398438 632.398438 C 474.199219 630.5 473.898438 628.601562 473.5 626.601562 C 473.101562 624.5 472.800781 622.300781 472.398438 620 C 471.800781 617.898438 471.5 615.699219 470.898438 614 C 470.398438 612.101562 469.800781 610.5 469.398438 609.5 C 468.898438 608.300781 468.5 607.699219 468.101562 607.699219 C 467.898438 607.699219 467.601562 607.699219 467.398438 607.699219 C 467.199219 607.898438 467 607.898438 466.699219 608.101562 Z M 466.699219 608.101562 Z M 454.300781 605 C 457.199219 605 459.601562 604.601562 461.800781 603.800781 C 463.898438 602.898438 465.699219 601.898438 467 600.5 C 468.300781 599.300781 469.398438 597.699219 470 596.199219 C 470.699219 594.398438 470.898438 592.898438 470.898438 591.199219 C 470.898438 588.699219 470.398438 587 469.199219 585.800781 C 468.101562 584.601562 466.800781 584.101562 465.398438 584.101562 C 464.398438 584.101562 463.699219 584.199219 463.199219 584.800781 C 462.398438 585.300781 462 586 462 586.800781 C 462 590.101562 461.5 592.398438 460.199219 593.699219 C 458.898438 595 457.199219 595.601562 455.199219 595.601562 C 453.898438 595.601562 453 595.300781 452.199219 594.601562 C 451.699219 594.101562 451.300781 593.199219 451.300781 592.199219 C 451.300781 591.699219 451.300781 591.199219 451.5 590.601562 C 451.699219 589.898438 451.699219 589.398438 451.699219 588.898438 C 451.699219 587.5 451.101562 586.300781 450 585.398438 C 448.898438 584.601562 447.601562 584.199219 446.101562 584.199219 C 444.300781 584.199219 442.800781 584.898438 441.5 586.101562 C 440 587.300781 439.300781 589.398438 439.300781 592 C 439.300781 593.398438 439.699219 595 440.199219 596.5 C 440.800781 598.101562 441.699219 599.398438 442.800781 600.699219 C 444.101562 601.898438 445.601562 602.898438 447.398438 603.800781 C 449.300781 604.601562 451.5 605 454.300781 605 Z M 454.300781 605 Z M 180.199219 739 C 180.199219 740.101562 180.898438 740.699219 182.398438 741.5 C 183.898438 742.101562 185.699219 742.601562 187.601562 742.800781 C 189.601562 743.199219 191.5 743.199219 193.101562 743 C 194.800781 742.800781 195.898438 742.5 196.300781 741.800781 C 196.398438 741.300781 196.800781 740.398438 197.398438 738.898438 L 198.898438 733.699219 L 200.5 727.300781 L 202.398438 720.398438 L 203.800781 714.199219 C 204.398438 712.300781 204.800781 710.699219 205.101562 709.699219 L 209 713.300781 L 213.5 717.300781 C 215 718.5 216.398438 719.699219 217.5 720.5 C 218.601562 721.398438 219.601562 721.898438 219.898438 721.898438 C 220.5 722.101562 221.199219 721.601562 222.699219 720.5 C 224 719.699219 225.5 718.5 227.300781 716.898438 C 229 715.398438 230.898438 713.699219 232.898438 711.699219 C 234.699219 710 236.398438 708.101562 238.101562 706.601562 C 237.898438 707.398438 237.898438 709 237.898438 710.699219 L 237.898438 716.898438 C 237.898438 719.199219 237.898438 721.398438 237.898438 723.800781 C 238.101562 726.199219 238.101562 728.699219 238.300781 730.699219 C 238.300781 733 238.398438 735.101562 238.398438 736.800781 C 238.601562 738.5 238.800781 739.898438 239 740.699219 C 239 741.601562 239.601562 742.300781 240.5 742.601562 C 241.398438 743.199219 242.5 743.398438 243.800781 743.5 C 245.300781 743.699219 246.601562 743.5 248.101562 743.398438 C 249.699219 743.199219 251 742.800781 252.300781 742.300781 C 253.601562 742 254.699219 741.300781 255.601562 740.601562 C 256.398438 739.898438 256.898438 739.199219 256.898438 738.300781 C 256.898438 737.699219 256.699219 736.398438 256.699219 734.5 C 256.601562 732.800781 256.398438 730.398438 256.199219 727.800781 L 255.300781 718.800781 C 254.898438 715.5 254.5 712.300781 254.199219 709 C 253.800781 705.699219 253.398438 702.398438 252.898438 699.300781 C 252.5 696.199219 252.101562 693.398438 251.601562 691 C 251.199219 688.601562 250.601562 686.699219 250.300781 685.101562 C 249.699219 683.699219 249.300781 683.101562 248.800781 683.101562 C 248.398438 683.101562 247.5 683.601562 246 684.601562 C 244.5 685.601562 242.898438 686.898438 241 688.398438 L 234.898438 693.800781 L 229 699.5 L 223.800781 704.5 C 222.300781 706.199219 221.398438 707.199219 220.898438 708.101562 C 220.300781 707.398438 219.699219 706.601562 218.800781 704.800781 L 215.898438 700.199219 L 212.199219 694.601562 C 210.898438 692.898438 209.601562 691.199219 208.5 689.601562 C 207.199219 688.101562 206.101562 686.699219 205.101562 685.800781 C 204 684.800781 203.300781 684.5 202.699219 684.5 C 202.398438 684.5 201.601562 685.300781 200.699219 686.699219 C 200 688.300781 198.898438 690.199219 197.699219 692.601562 C 196.601562 695.101562 195.300781 697.898438 194 701 L 190.101562 710.699219 L 186.5 720.398438 L 183.300781 729.199219 C 182.398438 731.800781 181.601562 734 181.101562 735.800781 C 180.5 737.5 180.199219 738.699219 180.199219 739 Z M 180.199219 739 Z M 284.300781 663.199219 C 283 662.5 281.5 662.300781 280 662.300781 C 278.800781 662.300781 277.300781 662.5 276.199219 663.199219 C 274.898438 663.699219 273.800781 664.601562 272.800781 665.398438 C 271.898438 666.5 271.199219 667.5 270.601562 668.699219 C 270.101562 669.898438 269.699219 671.300781 269.699219 672.5 C 269.699219 673.699219 270.101562 674.898438 270.601562 676 C 271.199219 677 271.699219 677.898438 272.5 678.601562 C 273.398438 679.101562 274.101562 679.601562 275 679.898438 C 276 680.300781 276.699219 680.601562 277.5 680.601562 C 278.898438 680.601562 280.199219 680.101562 281.5 679.398438 C 282.800781 678.699219 283.898438 677.898438 284.898438 676.800781 C 286 675.601562 286.699219 674.398438 287.398438 673 C 288 671.699219 288.398438 670.5 288.398438 669.101562 C 288.398438 667.898438 288 666.800781 287.398438 665.601562 C 286.699219 664.601562 285.800781 663.699219 284.300781 663.199219 Z M 284.300781 663.199219 Z M 308.398438 665.300781 C 306.898438 664 305.199219 663.398438 303.199219 663.398438 C 302.101562 663.398438 300.800781 663.5 299.699219 664 C 298.5 664.601562 297.398438 665.101562 296.5 665.898438 C 295.601562 666.699219 294.800781 667.699219 294.300781 668.699219 C 293.699219 669.800781 293.601562 670.800781 293.601562 672 C 293.601562 673.199219 293.699219 674.199219 294.101562 675.101562 C 294.5 676 294.800781 676.699219 295.601562 677.199219 C 296.101562 677.898438 296.699219 678.199219 297.398438 678.601562 C 298.300781 678.699219 299.101562 678.898438 299.699219 678.898438 C 301 678.898438 302.101562 678.601562 303.300781 678 C 304.5 677.5 305.699219 676.699219 306.699219 675.800781 C 307.601562 674.898438 308.5 673.898438 309.101562 672.699219 C 309.800781 671.699219 310.199219 670.5 310.199219 669.199219 C 310.199219 667.898438 309.601562 666.5 308.398438 665.300781 Z M 308.398438 665.300781 Z M 306.898438 727.800781 C 306.699219 727.800781 305.898438 728 304.800781 728.101562 C 303.5 728.300781 302.199219 728.699219 300.601562 729 L 295 730.101562 L 289.300781 731.101562 L 284.101562 732.101562 L 280.199219 732.800781 C 280 732.101562 279.898438 731.398438 279.898438 730.398438 C 279.699219 729.199219 279.699219 728.101562 279.699219 726.800781 L 279.699219 718.601562 C 281.300781 718.5 283 718.5 284.699219 718.300781 C 286.300781 718.101562 288 718.101562 289.5 718.101562 C 290.898438 718 292.300781 718 293.398438 718.101562 C 294.5 718.101562 295.398438 718.300781 296 718.5 C 298 719 299.800781 719 301.101562 718.300781 C 302.601562 717.800781 303.5 716.898438 304.101562 715.699219 C 304.800781 714.5 304.800781 713.101562 304.5 711.601562 C 304.101562 710 303 708.601562 301.300781 707.199219 C 300.800781 706.699219 299.699219 706.398438 298.199219 706.398438 C 296.300781 706.199219 294.699219 706.199219 292.601562 706.398438 C 290.800781 706.601562 288.601562 706.699219 286.300781 707.101562 C 283.898438 707.601562 281.699219 707.898438 279.5 708.5 C 279.699219 706.398438 279.898438 704.300781 280 702.800781 C 280.199219 701.199219 280.199219 700.199219 280.398438 699.601562 C 281.199219 699.601562 282.300781 699.601562 283.699219 699.601562 C 285.199219 699.601562 286.898438 699.5 288.699219 699.5 L 294.699219 699.101562 C 296.699219 699.101562 298.699219 699 300.398438 698.800781 L 304.800781 698.601562 C 306.101562 698.398438 306.898438 698.398438 307.398438 698.300781 C 307.800781 698.300781 308.398438 697.898438 308.699219 697.199219 C 309.300781 696.5 309.601562 695.800781 310 695 C 310.199219 693.898438 310.398438 693.101562 310.601562 692.101562 C 310.699219 691 310.699219 690 310.699219 689.101562 C 310.601562 688.300781 310.398438 687.398438 310 686.898438 C 309.601562 686.199219 309.300781 685.800781 308.5 685.800781 C 308.199219 685.800781 307 685.800781 304.800781 686 C 302.800781 686 300.199219 686 296.898438 686.199219 L 287.101562 686.5 C 283.699219 686.699219 280.398438 686.898438 277.5 687 C 274.300781 687.199219 271.898438 687.398438 269.699219 687.699219 C 267.601562 687.898438 266.5 688.101562 266.398438 688.300781 C 266.199219 688.398438 266 689.300781 266 691 C 265.800781 692.601562 265.601562 694.601562 265.601562 697.199219 C 265.601562 700 265.398438 702.898438 265.398438 706.199219 C 265.398438 709.5 265.398438 712.800781 265.398438 716.199219 L 265.601562 726.199219 C 265.601562 729.5 265.601562 732.5 265.800781 735.101562 C 265.800781 737.699219 265.800781 739.699219 266 741.5 C 266 743 266.199219 743.898438 266.398438 744 C 266.5 744.398438 267.601562 744.398438 269.5 744.398438 C 271.5 744.398438 273.898438 744.199219 276.699219 744 C 279.5 743.898438 282.398438 743.699219 285.800781 743.5 C 288.898438 743.199219 292.101562 743 294.800781 742.601562 L 302.398438 742 C 304.5 741.800781 305.699219 741.800781 306.101562 741.800781 C 306.898438 742 307.601562 741.601562 308.199219 740.699219 C 308.699219 740.101562 309.300781 739.199219 309.601562 738.199219 C 310 737 310.199219 735.898438 310.398438 734.5 C 310.398438 733.300781 310.398438 732.300781 310.199219 731.300781 C 310 730.199219 309.601562 729.398438 309.101562 728.699219 C 308.5 728 307.800781 727.601562 306.898438 727.800781 Z M 306.898438 727.800781 Z M 410.398438 705.699219 C 410.398438 705.5 409.5 705.300781 408.199219 705.300781 C 406.699219 705.300781 404.898438 705 402.5 705 C 400.300781 705 397.5 705 394.398438 705.300781 C 391 705.300781 387.699219 705.300781 384 705.5 C 384.199219 702.898438 384.199219 700.300781 384.199219 697.601562 C 384.300781 694.800781 384.300781 692.199219 384.300781 690 C 384.300781 687.5 384.300781 685.5 384.300781 683.699219 C 384.300781 682.199219 384.300781 681.199219 384.199219 680.800781 C 384.199219 680.5 383.199219 680.101562 381.800781 679.898438 C 380.101562 679.800781 378.101562 679.601562 375.800781 679.601562 C 373.398438 679.601562 370.898438 679.601562 368.101562 679.601562 C 365.101562 679.800781 362.5 679.800781 360.101562 679.898438 C 357.5 680.101562 355.300781 680.300781 353.699219 680.601562 C 351.800781 680.800781 350.699219 681.199219 350.300781 681.5 C 350 681.699219 349.601562 682.699219 349 684.601562 C 348.5 686.699219 347.898438 688.898438 347.199219 691.5 C 346.601562 694.300781 346.101562 697 345.5 700 C 345 702.898438 344.601562 705.5 344.398438 707.800781 C 337.601562 708.300781 332.199219 708.601562 327.898438 708.800781 C 323.699219 709.101562 321.5 709.5 320.898438 709.800781 C 320.699219 710 320.5 711 320.199219 712.601562 C 320 714.300781 319.800781 716.398438 319.398438 718.800781 C 319.300781 721.199219 319.101562 724 318.898438 726.800781 L 318.300781 735.199219 C 318.101562 738 318 740.199219 317.800781 742.5 C 317.601562 744.5 317.601562 745.898438 317.398438 746.800781 C 317.398438 747.300781 317.800781 747.800781 318.699219 748.199219 C 319.398438 748.398438 320.5 748.699219 321.601562 748.699219 C 323 748.898438 324.300781 748.898438 325.5 748.898438 C 327 748.699219 328.300781 748.5 329.601562 748.398438 C 330.898438 748.199219 332 747.800781 332.800781 747.300781 C 333.699219 747 334.101562 746.398438 334.199219 745.898438 C 334.199219 745.101562 334.199219 743.699219 334.398438 741.601562 C 334.398438 739.398438 334.601562 737.101562 334.601562 734.699219 C 334.800781 732.300781 334.800781 729.898438 335 727.5 C 335 725 335 723.101562 335 721.800781 C 335.5 721.898438 336.800781 721.898438 338.699219 721.898438 C 340.699219 721.898438 342.898438 721.898438 345.699219 721.898438 C 348.699219 721.898438 351.601562 721.800781 355 721.800781 C 358.300781 721.601562 361.800781 721.601562 365.300781 721.398438 C 368.800781 721.199219 372.300781 721.199219 375.699219 721.101562 C 379 720.898438 381.898438 720.699219 384.699219 720.5 C 387.5 720.398438 389.699219 720.398438 391.699219 720.199219 C 393.601562 720 394.699219 719.898438 395.300781 719.699219 C 395.300781 720.199219 395.300781 721.199219 395.300781 722.601562 C 395.101562 723.800781 395.101562 725.601562 395.101562 727.5 C 395.101562 729.199219 395.101562 731.300781 395.101562 733.300781 C 394.898438 735.398438 394.898438 737.300781 394.898438 739.199219 C 394.898438 741.101562 394.898438 742.601562 394.898438 744 C 394.699219 745.398438 394.699219 746.398438 394.699219 746.800781 C 394.699219 747.300781 395.101562 747.699219 395.800781 748 C 396.601562 748.398438 397.5 748.699219 398.601562 748.898438 C 399.898438 749.101562 401 749.199219 402.5 749.199219 C 403.800781 749.199219 405.101562 749.199219 406.199219 749.101562 C 407.5 748.898438 408.601562 748.5 409.300781 748 C 410.300781 747.699219 410.800781 747 411 746.300781 C 411.199219 745.800781 411.398438 744.5 411.398438 742.5 C 411.5 740.199219 411.5 737.800781 411.5 735.101562 C 411.5 732.101562 411.5 729 411.5 725.699219 C 411.5 722.398438 411.5 719.300781 411.5 716.601562 C 411.398438 713.699219 411.199219 711.199219 411.199219 709.300781 C 411 707.199219 410.800781 706 410.398438 705.699219 Z M 410.398438 705.699219 Z M 357.699219 707.199219 C 357.699219 706 357.898438 704.5 358.300781 703.101562 C 358.5 701.699219 358.601562 700.300781 359 699.101562 C 359.199219 697.699219 359.601562 696.5 359.699219 695.300781 C 360.101562 694.300781 360.300781 693.199219 360.5 692.699219 C 361.800781 692.699219 362.898438 692.699219 363.699219 692.601562 C 364.601562 692.601562 365.300781 692.601562 365.898438 692.601562 C 366.398438 692.601562 367 692.601562 367.300781 692.601562 C 367.898438 692.601562 368.398438 692.601562 369.199219 692.601562 C 369.398438 695.5 369.601562 698.398438 369.601562 701 C 369.398438 703.601562 369.601562 705.898438 369.800781 707.398438 C 368.398438 707.601562 367.300781 707.601562 366.398438 707.601562 C 365.300781 707.601562 364.398438 707.601562 363.5 707.601562 C 362.699219 707.601562 361.800781 707.398438 360.898438 707.398438 C 359.699219 707.199219 358.800781 707.199219 357.699219 707.199219 Z M 357.699219 707.199219 "/>
<path style=" stroke:none;fill-rule:evenodd;fill:rgb(94.116211%,48.626709%,0%);fill-opacity:1;" d="M 280.398438 145.800781 C 286.199219 145.800781 290.398438 148 290.398438 151.101562 C 290.398438 154.300781 286.199219 156.5 280.398438 156.5 C 274.898438 156.5 270.601562 154.300781 270.601562 151.101562 C 270.601562 148 274.898438 145.800781 280.398438 145.800781 Z M 280.398438 145.800781 Z M 284.101562 147.5 C 286.199219 147.5 287.601562 148.898438 287.601562 150.601562 C 287.601562 152.199219 286.199219 153.601562 284.101562 153.601562 C 282.398438 153.601562 281 152.199219 281 150.601562 C 281 148.898438 282.398438 147.5 284.101562 147.5 Z M 284.101562 147.5 Z M 276.898438 147.699219 C 278.601562 147.699219 280 149.199219 280 151 C 280 152.5 278.601562 154.101562 276.898438 154.101562 C 274.898438 154.101562 273.398438 152.5 273.398438 151 C 273.398438 149.199219 274.898438 147.699219 276.898438 147.699219 Z M 276.898438 147.699219 "/>
<path style=" stroke:none;fill-rule:evenodd;fill:rgb(94.116211%,48.626709%,0%);fill-opacity:1;" d="M 277.5 149.898438 C 278 149.898438 278.601562 150.300781 278.601562 151.101562 C 278.601562 151.699219 278 152.199219 277.5 152.199219 C 276.5 152.199219 276.199219 151.699219 276.199219 151.101562 C 276.199219 150.300781 276.5 149.898438 277.5 149.898438 Z M 277.5 149.898438 "/>
<path style=" stroke:none;fill-rule:evenodd;fill:rgb(94.116211%,48.626709%,0%);fill-opacity:1;" d="M 283 149.199219 C 283.5 149.199219 284.101562 149.601562 284.101562 150.5 C 284.101562 151 283.5 151.5 283 151.5 C 282.101562 151.5 281.699219 151 281.699219 150.5 C 281.699219 149.601562 282.101562 149.199219 283 149.199219 Z M 283 149.199219 "/>
<path style=" stroke:none;fill-rule:evenodd;fill:rgb(94.116211%,48.626709%,0%);fill-opacity:1;" d="M 264 148.898438 C 259 143.398438 232.601562 127 218.101562 110 C 206.800781 96.699219 201.101562 82.101562 205.199219 77 C 208.101562 73.398438 226.101562 71.699219 239 89.300781 C 250.699219 104.898438 263.101562 126.101562 264 148.898438 Z M 264 148.898438 Z M 260.699219 157 C 262.300781 156.199219 263.800781 155 265.101562 153.898438 C 264.898438 153.601562 264.898438 153.199219 264.898438 152.898438 C 264.898438 150.5 267.300781 148.199219 270.898438 147 C 284.898438 125.199219 270.699219 90 295.5 67.5 C 307.800781 56.5 322.300781 77.398438 310.101562 112.601562 C 303 132.898438 286.898438 141.601562 278.800781 146 C 280.800781 146.199219 282.699219 146.5 284.300781 147 C 377.199219 94.5 272.898438 -22.800781 269 145.101562 C 254 43.699219 163.199219 50.5 212.800781 115.601562 C 229.800781 137.800781 262.898438 144.398438 260.699219 157 Z M 260.699219 157 "/>
<path style=" stroke:none;fill-rule:evenodd;fill:rgb(94.116211%,48.626709%,0%);fill-opacity:1;" d="M 274.300781 145.800781 C 274.898438 145.800781 275.398438 145.800781 276 145.800781 C 269.5 146.101562 264.699219 149.101562 264.699219 152.5 C 264.699219 156.5 270.398438 159.601562 277.699219 159.601562 C 284.101562 159.601562 289.5 157 290.199219 153.398438 C 290.199219 153.699219 290.398438 154.101562 290.398438 154.601562 C 290.398438 159.300781 283.199219 163.199219 274.300781 163.199219 C 265.101562 163.199219 258 159.300781 258 154.601562 C 258 149.601562 265.101562 145.800781 274.300781 145.800781 Z M 274.300781 145.800781 "/>
<path style=" stroke:none;fill-rule:evenodd;fill:rgb(94.116211%,48.626709%,0%);fill-opacity:1;" d="M 396 505 C 369.398438 588.898438 285.101562 485.300781 382.898438 465.699219 C 410.601562 460.5 426.199219 463.5 427.800781 471.300781 C 419.101562 470.101562 398.199219 497.699219 396 505 Z M 396 505 Z M 363.699219 526.601562 C 370.101562 528.101562 365 518.300781 366.199219 509.398438 C 367.5 500.5 374.898438 495.800781 368.5 494.101562 C 362.199219 492.5 355.699219 498.398438 354.398438 507.398438 C 353.101562 516.199219 357.199219 524.800781 363.699219 526.601562 Z M 363.699219 526.601562 "/>
<path style=" stroke:none;fill-rule:evenodd;fill:rgb(94.116211%,48.626709%,0%);fill-opacity:1;" d="M 297.601562 191.101562 C 398.398438 191.101562 480.199219 267.199219 480.199219 361.398438 C 480.199219 432.898438 433.199219 494.101562 366.398438 519.300781 C 366 516.398438 365.699219 512.898438 366.199219 509.601562 C 366.601562 506.800781 367.5 504.601562 368.398438 502.5 C 369.199219 502.398438 369.898438 502 370.5 501.699219 C 381.800781 496.699219 387.5 484 397.300781 477 C 407.5 469.5 421.300781 467.5 429.300781 458 C 437.101562 449 436.101562 435.101562 441.699219 424.601562 C 447.101562 414.101562 458.898438 406.699219 461.699219 394.898438 C 464.300781 384.199219 457.398438 373.101562 456.5 361.398438 C 457.398438 349.800781 464.300781 338.601562 461.699219 328.101562 C 458.898438 316.101562 446.300781 307.300781 441 296.800781 C 435.398438 286.101562 437.101562 273.800781 429.300781 264.800781 C 421.300781 255.5 406.898438 252.699219 396.898438 245.300781 C 387.101562 238.199219 381.800781 226.101562 370.5 221.101562 C 359.199219 215.898438 345.300781 219.5 332.898438 216.800781 C 320.898438 214.199219 310.398438 205.398438 297.601562 205.199219 C 285.101562 205.199219 275.800781 213.800781 263.199219 216.601562 C 251.398438 219.199219 236 215.699219 224.398438 220.898438 C 214.199219 225.601562 207.601562 239.101562 198.5 245.5 C 188.300781 252.898438 175.898438 253.199219 167.800781 262.601562 C 160.199219 271.199219 160.601562 286.398438 155 296.398438 C 148.699219 308 136.699219 314.398438 133.601562 327.300781 C 131.199219 337.898438 137.800781 349.5 138.800781 360.300781 C 137.800781 371.398438 131.199219 384.898438 133.601562 395.398438 C 136.699219 408.398438 147.800781 413.699219 154.300781 425.300781 C 159.800781 435.300781 160.199219 451.699219 167.800781 460.199219 C 175.898438 469.5 188.699219 470.398438 199 477.601562 C 207.898438 484 214.199219 497.300781 224.398438 502 C 236 507.199219 251.398438 503.601562 263.199219 506.199219 C 275.800781 508.898438 285.101562 517.5 297.601562 517.5 C 310.398438 517.5 321.5 508.199219 333.699219 505.601562 C 340.699219 504.101562 347.898438 504.800781 355.101562 504.601562 C 354.800781 505.5 354.601562 506.5 354.601562 507.398438 C 353.699219 513.199219 355 518.800781 357.898438 522.398438 C 339.101562 528.398438 318.898438 531.898438 297.601562 531.898438 C 196.800781 531.898438 115.300781 455.5 115.300781 361.398438 C 115.300781 267.199219 196.800781 191.101562 297.601562 191.101562 Z M 297.601562 191.101562 "/>
<path style=" stroke:none;fill-rule:evenodd;fill:rgb(94.116211%,48.626709%,0%);fill-opacity:1;" d="M 194.101562 263.800781 C 210.199219 259.699219 225.199219 262.300781 228 270.101562 C 226.101562 268.800781 223.898438 268.199219 221.5 268.199219 C 215.601562 268.199219 210.800781 272.5 210.800781 277.800781 C 210.800781 282 213.398438 285.398438 217.300781 286.800781 C 213.398438 289.199219 208.601562 291.300781 203.199219 292.898438 C 186.699219 297.199219 171.800781 294.199219 169.199219 286.5 C 167 278.5 177.898438 268.300781 194.101562 263.800781 Z M 194.101562 263.800781 "/>
<path style=" stroke:none;fill-rule:evenodd;fill:rgb(94.116211%,48.626709%,0%);fill-opacity:1;" d="M 196.800781 273.800781 C 181.699219 274.699219 170.199219 282.101562 170.601562 290.398438 C 170.898438 298.898438 183.5 305.101562 198.898438 304.199219 C 213.800781 303.398438 225.699219 295.800781 225.101562 287.5 L 225.101562 287.101562 C 223.800781 287.699219 222.699219 287.800781 221.199219 287.800781 C 215.300781 287.800781 210.5 283.5 210.5 278 C 210.5 276.898438 210.699219 276.101562 210.898438 275.199219 C 206.800781 274 202 273.699219 196.800781 273.800781 Z M 196.800781 273.800781 "/>
<path style=" stroke:none;fill-rule:evenodd;fill:rgb(94.116211%,48.626709%,0%);fill-opacity:1;" d="M 398 252.898438 C 379.699219 248.101562 362.398438 251.199219 359.601562 260.300781 L 359.601562 260.5 C 361.398438 259.101562 363.800781 258.300781 366.398438 258.300781 C 373.300781 258.300781 378.800781 263.5 378.800781 269.5 C 378.800781 273.699219 376 277.5 372 279.398438 C 376.601562 281.898438 381.898438 284.199219 387.898438 285.898438 C 406.199219 290.898438 423.601562 287.601562 426.300781 278.5 C 429.101562 269.300781 416.601562 257.898438 398 252.898438 Z M 398 252.898438 "/>
<path style=" stroke:none;fill-rule:evenodd;fill:rgb(94.116211%,48.626709%,0%);fill-opacity:1;" d="M 394.5 264.199219 C 411.699219 265 425.101562 273.5 424.5 283 C 423.898438 292.5 409.5 299.398438 392.300781 298.398438 C 375.300781 297.5 362.398438 289.199219 362.5 279.699219 C 363.699219 280.199219 364.898438 280.398438 366.398438 280.398438 C 373.101562 280.398438 378.601562 275.398438 378.601562 269.300781 C 378.601562 268.101562 378.5 266.898438 377.898438 265.898438 C 382.699219 264.5 388.398438 264 394.5 264.199219 Z M 394.5 264.199219 "/>
<path style=" stroke:none;fill-rule:evenodd;fill:rgb(94.116211%,48.626709%,0%);fill-opacity:1;" d="M 196.800781 392.398438 C 204.601562 391.699219 218.300781 383.398438 222.199219 369.101562 L 235.699219 374.601562 C 230.5 390.898438 228.5 406.601562 218.5 415.199219 C 207.601562 424.5 193.699219 423.5 181.800781 411.101562 C 175.699219 404.300781 171.898438 397.601562 171.898438 389.5 C 171.898438 378.800781 192 366.5 205.699219 361 L 218.5 367.398438 C 212.699219 378.601562 197.199219 385.5 196.800781 392.398438 Z M 196.800781 392.398438 Z M 171.101562 325.898438 C 170.601562 337 188.898438 348 197.398438 354.199219 C 137.300781 385.5 169.300781 427.699219 200.898438 429.699219 C 232.699219 432 227.199219 416.101562 242.898438 377.699219 C 330 407.101562 445 359.898438 445.800781 342.800781 C 308.601562 440.800781 192.800781 321.800781 171.101562 325.898438 Z M 171.101562 325.898438 "/>
<path style=" stroke:none;fill-rule:evenodd;fill:rgb(94.116211%,48.626709%,0%);fill-opacity:1;" d="M 294.101562 299 C 303.898438 297.101562 321.800781 300.199219 327.898438 305.699219 C 330.699219 308.300781 334.601562 316.300781 328.5 319.898438 C 313.898438 328.898438 227.5 312.300781 294.101562 299 Z M 294.101562 299 Z M 279.101562 293.300781 C 159.601562 335.601562 425.398438 356.300781 337.601562 301.699219 L 324.300781 294.5 C 308.5 286 295.199219 288.300781 279.101562 293.300781 Z M 279.101562 293.300781 "/>
<path style=" stroke:none;fill-rule:evenodd;fill:rgb(100%,100%,100%);fill-opacity:1;" d="M 295.300781 375.398438 C 301.398438 375.398438 306.199219 379.5 306.199219 385.101562 C 306.199219 390.601562 301.398438 394.898438 295.300781 394.898438 C 289.199219 394.898438 284.398438 390.601562 284.398438 385.101562 C 284.398438 379.5 289.199219 375.398438 295.300781 375.398438 Z M 295.300781 375.398438 "/>
<path style=" stroke:none;fill-rule:evenodd;fill:rgb(100%,100%,100%);fill-opacity:1;" d="M 440.5 365.601562 C 447.5 365.601562 452.898438 370.398438 452.898438 376.601562 C 452.898438 382.601562 447.5 387.5 440.5 387.5 C 433.398438 387.5 428.101562 382.601562 428.101562 376.601562 C 428.101562 370.398438 433.398438 365.601562 440.5 365.601562 Z M 440.5 365.601562 "/>
<path style=" stroke:none;fill-rule:evenodd;fill:rgb(100%,100%,100%);fill-opacity:1;" d="M 437.5 633.699219 C 444.199219 635.398438 438.800781 625.699219 440.101562 616.800781 C 441.601562 607.601562 449 602.800781 442.5 601.199219 C 436 599.800781 429.601562 605.5 428.300781 614.5 C 427.199219 623.5 431 632.199219 437.5 633.699219 Z M 437.5 633.699219 "/>
<path style=" stroke:none;fill-rule:evenodd;fill:rgb(100%,100%,100%);fill-opacity:1;" d="M 549.5 331.398438 C 544.5 335 544.800781 323.601562 540.101562 315 C 534.898438 306.300781 526.699219 303.800781 531.398438 300.101562 C 536.300781 296.699219 544.300781 300.5 549.300781 309.101562 C 554.300781 317.800781 554.300781 327.800781 549.5 331.398438 Z M 549.5 331.398438 "/>
<path style=" stroke:none;fill-rule:evenodd;fill:rgb(100%,100%,100%);fill-opacity:1;" d="M 200.199219 323.800781 C 203.699219 326.199219 203.300781 318.398438 206.601562 312.398438 C 210.398438 306.5 216.101562 304.601562 212.800781 302.199219 C 209.300781 299.800781 203.699219 302.300781 200.199219 308.398438 C 197 314.398438 197 321.199219 200.199219 323.800781 Z M 200.199219 323.800781 "/>
</g>
</svg>
